<svg width="104" height="126" viewBox="0 0 104 126" fill="none" xmlns="http://www.w3.org/2000/svg">
<path fill-rule="evenodd" clip-rule="evenodd" d="M103.551 10.3046C98.8819 9.98261 93.0855 8.29201 86.4036 6.35989C76.8235 3.62272 65.0698 0.16101 52.9135 0H51.6255C37.7786 0.0805049 25.4614 3.70323 15.5593 6.68191C9.68239 8.45302 4.53008 9.98261 0.504829 10.3046C-0.219715 21.1728 -0.13921 32.1215 0.585335 42.9091C0.66584 44.1972 0.826849 45.4853 0.907354 46.7734C0.987859 47.6589 1.06836 48.5445 1.14887 49.43C1.30988 50.7181 1.47089 52.0062 1.6319 53.2138C2.11493 56.5145 2.59796 59.7347 3.242 62.7133C3.40301 63.4379 3.56402 64.0819 3.64452 64.726C4.28856 67.5436 5.01311 70.2808 5.73765 72.7765C5.89866 73.34 6.05967 73.823 6.22068 74.3061C6.94522 76.7212 7.83078 79.1364 8.79684 81.5515C9.7629 83.8861 10.8095 86.2208 11.856 88.3139C12.8221 90.1655 13.8686 92.0171 14.9152 93.7883C14.9957 93.9493 15.1567 94.1908 15.2372 94.3518C15.9618 95.5594 16.7668 96.7669 17.5719 97.894C18.1354 98.6991 18.5379 99.3431 19.021 99.9066C19.7455 100.873 20.5506 101.919 21.4361 102.966C25.6224 107.877 30.3722 112.304 35.605 116.008C35.927 116.249 36.1685 116.41 36.4905 116.571C37.2956 117.135 38.0201 117.618 38.7447 118.101C41.3208 119.791 43.9775 121.401 46.9562 123.012C47.5197 123.334 48.0832 123.575 48.6468 123.897C49.1298 124.139 49.6128 124.38 50.0959 124.622C50.6594 124.944 51.2229 125.185 51.7865 125.507H51.867C52.35 125.266 52.833 125.024 53.3161 124.783C53.7991 124.541 54.2821 124.3 54.7652 123.978C55.0872 123.817 55.4092 123.656 55.7312 123.495C55.9727 123.414 56.2142 123.253 56.3752 123.173C57.4218 122.609 58.4684 122.045 59.4344 121.482C60.7225 120.757 61.9301 120.033 63.2182 119.228C63.7012 118.906 64.1842 118.584 64.6673 118.342C65.1503 118.02 65.7138 117.698 66.1968 117.296C66.5189 117.054 66.8409 116.813 67.1629 116.652C67.3239 116.571 67.5654 116.41 67.7264 116.249C68.29 115.847 68.8535 115.444 69.417 115.042C70.4636 114.236 71.5102 113.431 72.4762 112.626C75.2134 110.372 77.7896 107.957 80.1242 105.3C80.6877 104.656 81.3318 104.012 82.0563 103.127C82.4588 102.644 82.8614 102.161 83.1834 101.678C83.6664 101.114 84.0689 100.551 84.552 99.9871C85.035 99.3431 85.518 98.699 86.0011 97.9745C86.8061 96.8474 87.6112 95.6399 88.3357 94.4323C89.2213 93.0637 90.1068 91.5341 90.9119 90.085C91.9584 88.0724 93.005 85.9793 93.9711 83.7251C94.4541 82.5981 94.9371 81.3905 95.5006 80.0219C95.9032 78.9753 96.2252 78.0093 96.6277 76.8822C96.7887 76.4797 96.9497 76.0772 97.0302 75.6746L97.1913 75.2721C97.2718 74.9501 97.3523 74.6281 97.5133 74.3061C98.3183 71.8909 99.0429 69.2342 99.6869 66.5776C99.8479 65.9335 100.009 65.2895 100.17 64.565C100.331 63.9209 100.411 63.2769 100.572 62.6328C101.216 59.6542 101.7 56.434 102.183 53.2138C102.344 51.9257 102.505 50.6376 102.666 49.3495C102.746 48.464 102.827 47.5784 102.907 46.6929C103.068 45.4048 103.149 44.1167 103.229 42.8286C104.195 32.041 104.195 21.0923 103.551 10.3046ZM102.263 42.4261C102.183 43.6337 102.102 44.8412 102.022 45.9683C101.941 47.2564 101.78 48.7055 101.619 50.3156C101.458 51.6037 101.297 52.8112 101.136 54.0188C100.894 55.7094 100.653 57.3195 100.331 58.9296C100.17 60.1372 99.9284 61.3448 99.6064 62.7939C99.4454 63.6794 99.2039 64.4845 99.0429 65.37C98.9624 65.853 98.8013 66.4166 98.6403 66.8996C97.9158 69.7978 97.1912 72.5349 96.3057 75.1111C95.3396 78.0898 94.2126 81.0685 92.9245 83.8861C92.4415 84.9327 91.9584 86.0598 91.3949 87.0258C90.8314 88.0724 90.2678 89.1995 89.7043 90.1655C88.6577 92.0171 87.5307 93.8688 86.4036 95.5594C86.0011 96.1229 85.5985 96.6864 85.196 97.25C84.713 97.894 84.23 98.538 83.7469 99.1821C83.1834 99.9871 82.5393 100.712 81.9758 101.356C79.5607 104.254 76.904 106.991 74.0863 109.406C73.0398 110.292 71.9932 111.177 70.9466 111.982C70.6246 112.224 70.3026 112.465 69.9806 112.787C69.5781 113.029 69.256 113.351 68.8535 113.592C68.8535 113.592 68.773 113.592 68.773 113.673C68.29 114.075 67.7264 114.398 67.1629 114.8C66.8409 115.042 66.5189 115.203 66.1968 115.444C66.0358 115.605 65.7943 115.686 65.6333 115.847C65.3113 116.088 64.9893 116.249 64.6673 116.491C63.6207 117.135 62.5741 117.779 61.5276 118.423C60.481 118.986 59.5149 119.63 58.4684 120.194C58.0659 120.435 57.6633 120.677 57.2608 120.838C57.0193 120.999 56.7778 121.079 56.5363 121.24C56.2947 121.401 56.0532 121.482 55.7312 121.643C55.5702 121.723 55.4897 121.804 55.3287 121.804C55.3287 121.804 55.2482 121.884 55.1677 121.884C55.0067 121.965 54.8457 122.045 54.6846 122.126C54.5236 122.206 54.3626 122.287 54.2016 122.368C54.2016 122.368 53.3966 122.77 53.1551 122.851H50.8204C50.4179 122.69 50.0154 122.448 49.6933 122.287C49.4518 122.126 49.2103 122.045 48.9688 121.884C48.7273 121.804 48.5663 121.643 48.3248 121.562C48.2443 121.482 48.0832 121.482 48.0027 121.401C47.7612 121.24 47.4392 121.079 47.1977 120.999C46.9562 120.918 46.7952 120.757 46.5536 120.677C43.4945 118.986 40.6768 117.376 38.1006 115.605C37.9396 115.444 37.6981 115.364 37.5371 115.203C37.2151 114.961 36.8931 114.8 36.571 114.559C36.0075 114.156 35.5245 113.834 34.9609 113.431C34.8804 113.431 34.8804 113.351 34.7999 113.351C34.3974 113.109 34.0754 112.787 33.6729 112.465C28.6011 108.601 24.0928 104.093 20.148 99.1016C19.2625 97.894 18.3769 96.6864 17.5719 95.4789C15.9618 93.0637 14.4322 90.4875 13.0636 87.9114C11.9365 85.7378 10.89 83.4836 9.92391 81.0685C8.71633 78.0898 7.66977 75.0306 6.78421 72.0519C6.14017 69.9588 5.57664 67.7852 5.01311 65.37C4.53008 63.2769 4.12755 61.1032 3.72503 58.8491L3.64452 58.2051C3.40301 56.8365 3.16149 55.3874 3.00048 53.8578C2.83947 52.6502 2.67846 51.3621 2.51745 50.0741C2.35644 48.625 2.19543 47.2564 2.11493 45.8073C2.03442 44.5997 1.95392 43.3922 1.87341 42.1846C1.30988 32.363 1.30988 22.4609 2.03442 12.6393L2.11493 11.5927H3.16149C6.78421 11.5122 11.7755 10.0631 17.6524 8.29201C26.5884 5.79635 37.7786 2.41515 50.4179 2.17363H53.1551C64.6673 2.33464 75.6964 5.55484 84.552 8.131C91.0729 10.0631 96.7082 11.6732 100.894 11.7537H101.941L102.022 12.8003C102.746 22.6219 102.827 32.6045 102.263 42.4261Z" fill="#010B40"/>
<path d="M36.3295 53.1332C36.249 53.0527 36.1685 53.0527 36.0075 53.0527C35.8465 53.0527 35.766 53.0527 35.6855 53.1332C34.3169 53.9383 33.2703 55.2264 32.7873 56.756L28.279 69.3147C28.1985 69.6367 28.279 69.9588 28.6011 70.0393L35.766 73.7425C35.8465 73.823 35.927 73.823 36.088 73.823C36.1685 73.823 36.3295 73.823 36.41 73.7425C36.571 73.5815 36.7321 73.4205 36.7321 73.179V53.6968C36.6515 53.4553 36.4905 53.2942 36.3295 53.1332ZM35.444 72.2934L29.6476 69.2342L34.1559 56.595L35.444 55.3874V72.2934Z" fill="#010B40"/>
<path d="M88.2554 70.2004L82.0565 52.8918C79.3998 45.5659 72.3959 40.6551 64.6674 40.6551H60.3202C59.9982 40.6551 59.7566 40.8966 59.6761 41.2186C59.1126 44.1973 58.3076 47.0955 57.261 49.9131L55.5704 54.3409L54.5238 49.1081C54.5238 49.0276 54.4433 48.9471 54.4433 48.7861L54.0408 47.981L54.6043 47.337C54.7653 47.176 54.9263 46.9344 54.9263 46.6124L55.6509 42.5067C55.7314 42.2652 55.6509 42.0236 55.6509 41.7821C55.5704 41.6211 55.5704 41.4601 55.4899 41.2991L55.4094 41.2186C55.2484 41.0576 55.0874 40.8966 54.8458 40.8161C54.7653 40.7356 54.6043 40.7356 54.4433 40.7356C54.4433 40.7356 54.3628 40.7356 54.2823 40.7356L54.1213 38.1594V38.0789C54.7653 37.9179 55.4899 37.7569 56.0534 37.5154C56.2144 37.4349 56.4559 37.3544 56.6169 37.2739C56.778 37.1933 57.0195 37.1128 57.1805 37.0323H57.261C58.227 36.5493 59.1126 35.9858 59.9177 35.2612H57.905C57.6635 35.4222 57.5025 35.5027 57.261 35.6638C57.0195 35.8248 56.778 35.9053 56.5364 36.0663C56.0534 36.3078 55.6509 36.4688 55.0874 36.6298C54.5238 36.7908 53.9603 36.9518 53.3162 37.0323L52.5112 37.1934L50.7401 37.5154L50.9011 37.1934H50.8206C49.774 37.1128 48.7275 36.9518 47.8419 36.6298C47.3589 36.4688 46.8759 36.3078 46.4733 36.0663C46.3928 36.0663 46.3123 35.9858 46.2318 35.9858C45.8293 35.8248 45.4268 35.5833 45.1047 35.3417H43.0921C43.3336 35.5833 43.5752 35.7443 43.8167 35.9053C43.9777 36.0663 44.1387 36.1468 44.2997 36.3078C44.4607 36.3883 44.6217 36.5493 44.8632 36.6298C45.0242 36.7103 45.1852 36.7908 45.3463 36.8713C45.5073 36.9518 45.6683 37.0323 45.7488 37.1128C45.9098 37.1933 46.0708 37.2739 46.2318 37.3544C46.3123 37.3544 46.3123 37.4349 46.3928 37.4349C46.3928 37.4349 46.3928 37.4349 46.4733 37.4349C46.6343 37.5154 46.8759 37.5959 47.0369 37.6764C47.1979 37.7569 47.4394 37.8374 47.6004 37.8374C48.0834 37.9984 48.5665 38.0789 49.0495 38.2399L49.13 40.8161C48.969 40.8161 48.8885 40.8966 48.808 40.8966C48.647 40.9771 48.4054 41.1381 48.3249 41.2991C48.1639 41.4601 48.0834 41.6211 48.0029 41.8626C47.9224 42.1042 47.9224 42.3457 48.0029 42.5872L48.7275 46.3709C49.3715 47.2565 49.452 48.464 48.8885 49.4301L48.0029 54.2604L46.3123 49.8326C45.2658 47.015 44.4607 44.1168 43.8972 41.1381C43.8167 40.8161 43.5751 40.6551 43.2531 40.6551H39.3084C31.4994 40.6551 24.4955 45.5659 21.9193 52.8918L15.801 70.2004C14.7544 73.1791 16.0425 76.4798 18.8601 78.0094L35.4442 86.6234V97.6526L33.7535 112.143L33.673 112.707L33.512 114.076C33.5925 114.156 33.7536 114.237 33.8341 114.317C34.0756 114.478 34.3976 114.72 34.6391 114.881L34.8001 113.593L34.8806 112.948L36.5712 98.2161C36.5712 98.0551 36.5712 97.9746 36.6517 97.8941V86.3014C36.6517 86.0598 36.4907 85.8988 36.3297 85.7378L19.4237 76.9628C17.1695 75.7552 16.123 73.0986 17.0085 70.6834L23.2074 53.4553C25.542 46.5319 32.1435 41.8626 39.3889 41.8626H42.8506L43.0921 42.9092C43.7362 46.0489 45.6683 53.6969 49.13 56.3535C49.291 56.434 49.3715 56.5145 49.5325 56.5145C49.6935 56.5145 49.8545 56.434 50.0155 56.273C50.1766 56.112 50.1766 55.951 50.1766 55.79L49.452 53.1333L50.2571 49.1886H53.3967L54.2018 53.1333L53.6383 55.79C53.5578 56.0315 53.6383 56.1925 53.7188 56.273C53.7993 56.3535 53.8798 56.5145 54.1213 56.5145C54.2018 56.5145 54.2018 56.5145 54.2823 56.5145C54.4433 56.5145 54.5238 56.434 54.6848 56.3535C58.1465 53.6164 60.0787 46.0489 60.7227 42.9092L60.9642 41.8626H64.8285C72.0739 41.8626 78.5948 46.4514 81.0904 53.2943L87.2893 70.6029C88.1749 73.018 87.1283 75.6747 84.8742 76.8823L67.3241 85.8183C67.1631 85.8988 67.0021 86.1404 67.0021 86.3819V97.7331V97.8136L68.7732 113.11L68.8537 113.754L69.0147 115.042C69.4172 114.8 69.7393 114.478 70.1418 114.237L69.9808 112.948L69.9003 112.304L68.2097 97.8136V97.572V86.7039L85.1962 77.9288C88.0139 76.4798 89.302 73.1791 88.2554 70.2004ZM50.1766 46.6124L49.291 41.8626H54.6848L53.7993 46.6124H50.1766ZM56.4559 121.402L56.3754 120.435L53.9603 99.5042C53.9603 99.2627 53.8798 99.0211 53.8798 98.7796C53.8798 98.4576 53.6383 98.1356 53.2357 98.1356H50.1766C49.8545 98.1356 49.5325 98.3771 49.5325 98.7796C49.5325 99.0211 49.5325 99.2627 49.5325 99.5042L47.1174 120.194L47.0369 121.16L46.8759 122.207C47.2784 122.368 47.6004 122.609 48.0029 122.851L48.1639 121.724L48.2444 120.757L50.6596 99.5847H52.1892L55.0068 120.918L55.0874 121.885L55.2484 122.931C55.6509 122.77 55.9729 122.529 56.3754 122.287L56.4559 121.402Z" fill="#010B40"/>
<path d="M75.7764 69.315L71.2682 56.7563C70.7046 55.0657 69.4971 53.6971 67.887 52.892C67.8065 52.8115 67.726 52.8115 67.5649 52.8115C67.4039 52.8115 67.1624 52.892 67.0014 53.1335C67.0014 53.214 66.9209 53.2946 66.9209 53.4556V73.5013C66.9209 73.7428 67.0014 73.9038 67.0819 73.9038C67.1624 73.9843 67.3234 74.0648 67.4844 74.0648C67.5649 74.0648 67.6454 74.0648 67.8065 73.9843L75.3739 70.0396C75.6959 69.9591 75.8569 69.6371 75.7764 69.315ZM68.209 72.4547V54.7436L69.4971 55.4682L74.4884 69.315L68.209 72.4547Z" fill="#010B40"/>
<path d="M51.7869 12.3169C44.622 12.3169 38.7451 18.1938 38.7451 25.3587C38.7451 29.3034 40.5162 32.8457 43.2534 35.1803C43.4949 35.3413 43.7364 35.5828 43.9779 35.7438C44.1389 35.9048 44.3 35.9853 44.461 36.1464C44.622 36.2269 44.783 36.3879 45.0245 36.4684C45.1855 36.5489 45.3465 36.6294 45.5075 36.7099C45.6685 36.7904 45.8296 36.8709 45.9101 36.9514C46.0711 37.0319 46.2321 37.1124 46.3931 37.1929C46.4736 37.1929 46.4736 37.2734 46.5541 37.2734C46.5541 37.2734 46.5541 37.2734 46.6346 37.2734C46.7956 37.3539 47.0371 37.4344 47.1981 37.5149C47.3591 37.5954 47.5202 37.6759 47.7617 37.6759C48.2447 37.837 48.7277 37.998 49.2108 38.0785C50.0158 38.2395 50.9014 38.32 51.7869 38.32C52.6725 38.32 53.4775 38.2395 54.2826 38.0785C54.9266 37.9175 55.5706 37.7565 56.2147 37.5149C56.3757 37.4344 56.6172 37.3539 56.7782 37.2734C56.9392 37.1929 57.1807 37.1124 57.3418 37.0319H57.4223C61.7695 34.9388 64.7482 30.4305 64.7482 25.2782C64.8287 18.1133 58.9519 12.3169 51.7869 12.3169ZM57.4223 35.5828C57.1807 35.7438 56.8587 35.9048 56.6172 35.9853C56.1342 36.2269 55.6512 36.3879 55.1681 36.5489C54.1216 36.8709 52.914 37.0319 51.7869 37.0319C50.5793 37.0319 49.4523 36.8709 48.3252 36.5489C47.8422 36.3879 47.3591 36.2269 46.8761 35.9853C46.7151 35.9048 46.5541 35.8243 46.3931 35.7438C42.6094 33.8117 40.1137 29.867 40.1137 25.3587C40.1137 18.9183 45.3465 13.6855 51.7869 13.6855C58.2273 13.6855 63.4601 18.9183 63.4601 25.3587C63.4601 29.706 61.045 33.5702 57.4223 35.5828Z" fill="#010B40"/>
<path d="M64.3455 40.6548H41.7236V41.8624H64.3455V40.6548Z" fill="#010B40"/>
<path d="M56.7774 36.4688V41.2185H47.1973V36.4688H48.3243C49.3709 36.7908 50.5785 36.9518 51.786 36.9518C52.9936 36.9518 54.1207 36.7908 55.1673 36.4688H56.7774Z" fill="white"/>
<path d="M56.6164 35.9858C56.1334 36.2274 55.6503 36.3884 55.1673 36.5494C54.1207 36.8714 52.9132 37.0324 51.7861 37.0324C50.5785 37.0324 49.4515 36.8714 48.3244 36.5494C47.8414 36.3884 47.3583 36.2274 46.8753 35.9858H46.6338V41.8627H57.3409V35.9858H56.6164ZM56.2944 37.0324V40.6551H47.7609V37.0324H56.2944Z" fill="#010B40"/>
<path d="M51.7869 12.3169C44.622 12.3169 38.7451 18.1938 38.7451 25.3587C38.7451 29.3034 40.5162 32.8457 43.2534 35.1803C43.4949 35.3413 43.7364 35.5828 43.9779 35.7438C44.1389 35.9048 44.3 35.9853 44.461 36.1464C44.622 36.2269 44.783 36.3879 45.0245 36.4684C45.1855 36.5489 45.3465 36.6294 45.5075 36.7099C45.6685 36.7904 45.8296 36.8709 45.9101 36.9514C46.0711 37.0319 46.2321 37.1124 46.3931 37.1929C46.4736 37.1929 46.4736 37.2734 46.5541 37.2734C46.5541 37.2734 46.5541 37.2734 46.6346 37.2734C46.7956 37.3539 47.0371 37.4344 47.1981 37.5149C47.3591 37.5954 47.5202 37.6759 47.7617 37.6759C48.2447 37.837 48.7277 37.998 49.2108 38.0785C50.0158 38.2395 50.9014 38.32 51.7869 38.32C52.6725 38.32 53.4775 38.2395 54.2826 38.0785C54.9266 37.9175 55.5706 37.7565 56.2147 37.5149C56.3757 37.4344 56.6172 37.3539 56.7782 37.2734C56.9392 37.1929 57.1807 37.1124 57.3418 37.0319H57.4223C61.7695 34.9388 64.7482 30.4305 64.7482 25.2782C64.8287 18.1133 58.9519 12.3169 51.7869 12.3169ZM57.4223 35.5828C57.1807 35.7438 56.8587 35.9048 56.6172 35.9853C56.1342 36.2269 55.6512 36.3879 55.1681 36.5489C54.1216 36.8709 52.914 37.0319 51.7869 37.0319C50.5793 37.0319 49.4523 36.8709 48.3252 36.5489C47.8422 36.3879 47.3591 36.2269 46.8761 35.9853C46.7151 35.9048 46.5541 35.8243 46.3931 35.7438C42.6094 33.8117 40.1137 29.867 40.1137 25.3587C40.1137 18.9183 45.3465 13.6855 51.7869 13.6855C58.2273 13.6855 63.4601 18.9183 63.4601 25.3587C63.4601 29.706 61.045 33.5702 57.4223 35.5828Z" fill="#010B40"/>
</svg>
