<svg width="129" height="47" viewBox="0 0 129 47" fill="none" xmlns="http://www.w3.org/2000/svg">
<path fill-rule="evenodd" clip-rule="evenodd" d="M78.4822 37.7341L79.9102 40.5709L83.1089 41.0526L80.767 43.2471L81.3382 46.3514L78.4822 44.9063L75.6262 46.3514L76.1403 43.2471L73.8555 41.0526L77.0542 40.5709L78.4822 37.7341Z" fill="white"/>
<path fill-rule="evenodd" clip-rule="evenodd" d="M50.7219 38.1089L52.1499 40.9456L55.3486 41.4274L53.0638 43.6218L53.5779 46.7797L50.7219 45.2811L47.8659 46.7797L48.4371 43.6218L46.1523 41.4274L49.2939 40.9456L50.7219 38.1089Z" fill="white"/>
<path fill-rule="evenodd" clip-rule="evenodd" d="M78.5968 5.29884C78.5968 5.29884 114.297 4.01427 128.063 0C127.091 1.92685 125.207 4.49599 125.207 4.49599C125.207 4.49599 89.164 9.20607 81.3957 8.99197C81.1672 9.63426 80.7102 11.1329 80.7102 11.1329C80.7102 11.1329 114.754 8.34969 122.922 6.90455C122.179 8.40321 121.265 10.3301 121.265 10.3301C121.265 10.3301 86.7649 15.8965 79.2822 14.0232C78.9966 15.0401 78.8253 16.1641 78.8253 16.1641C78.8253 16.1641 110.07 14.1302 116.867 12.7386C116.01 13.9697 114.24 16.6994 114.24 16.6994C114.24 16.6994 80.4817 19.5897 77.6258 19.3756C77.283 19.9643 76.6547 21.5165 76.6547 21.5165C80.3104 21.0348 100.017 19.6432 109.27 18.8403C108.585 19.6967 107.214 21.7841 106.7 22.8011C103.444 22.8011 77.3402 24.5674 75.5123 24.4068C75.1125 25.0491 74.9982 25.6913 74.8269 26.5477C76.3691 26.5477 88.3643 25.8519 92.7625 25.2096C92.0199 26.2801 90.5919 28.5281 90.135 29.438C86.2508 29.438 71.6853 29.1169 69.3434 29.438C68.6008 27.7252 65.0594 20.1249 64.3169 17.5022C63.8599 19.6967 60.09 27.8323 59.6902 29.438C57.1769 29.2774 40.4408 29.438 38.4416 29.1704C37.4134 27.7252 36.8994 26.8153 35.8141 25.4773C39.127 25.9054 52.3217 26.1731 53.5212 26.2801C53.2927 25.5308 53.5212 25.3702 53.2927 24.4068C52.6644 24.4068 26.218 23.4434 21.8769 22.8011C20.9058 21.5165 19.9348 20.0714 19.3065 18.5727C22.3909 19.4291 49.9227 21.5165 51.6934 21.5165C51.3507 20.5531 50.8937 20.2319 50.7224 19.6432C49.9798 19.6967 17.0217 17.1276 14.5655 17.2346C13.5374 15.843 12.3379 14.3979 11.7096 12.7386C16.1078 13.2739 47.2952 16.9135 49.7513 16.1641C49.5228 15.4683 49.2372 14.8796 48.7803 14.0232C43.5253 14.5049 9.36764 10.9723 7.31133 10.5977C6.96861 9.63426 5.82622 8.02855 4.96942 6.63693C9.19628 7.7074 42.44 10.4371 47.4094 10.8653C47.0096 10.3836 46.9524 10.4906 46.724 9.25959C43.2968 9.42016 4.6267 4.87065 2.34191 4.22837C1.77071 3.26494 0 0 0 0C0 0 40.0981 6.74398 49.58 5.29884C52.3217 11.6682 55.0063 19.1079 55.0063 19.1079H58.0908L61.8607 11.4005L60.2042 9.52721L59.0047 11.9358L57.8052 8.24264L62.5461 5.83408L67.5156 5.29884L70.8285 18.5727" fill="white"/>
<path fill-rule="evenodd" clip-rule="evenodd" d="M64.6024 27.1365L66.9443 33.934L74.5984 33.8805L68.3723 38.1088L70.7713 44.9063L64.6024 40.678L58.4335 44.9063L60.8325 38.1088L54.6064 33.8805L62.2605 33.934L64.6024 27.1365Z" fill="white"/>
</svg>
