<svg width="104" height="126" viewBox="0 0 104 126" fill="none" xmlns="http://www.w3.org/2000/svg">
<path fill-rule="evenodd" clip-rule="evenodd" d="M51.8619 125.304C40.1196 119.514 25.482 110.667 15.0266 93.6163C13.9811 91.8469 12.9355 89.9971 11.9704 88.1473C10.8444 85.9758 9.87932 83.7238 8.9142 81.3915C7.78823 78.657 6.74269 75.6812 5.858 72.625C4.89288 69.4884 4.00819 66.03 3.28436 62.4913C0.228155 47.8537 -0.656535 30.2403 0.469434 10.2141C4.49075 9.89244 9.63804 8.36434 15.5896 6.67539C25.482 3.69961 37.7873 0.0804264 51.6206 0H52.1836H52.9074C65.0518 0.160853 76.794 3.53876 86.3648 6.35368C93.0402 8.28391 98.8309 9.97287 103.496 10.2946C104.702 30.3207 103.737 47.9341 100.681 62.5717C100.439 63.8585 100.118 65.2258 99.796 66.5126C98.9917 69.6492 98.1875 72.7054 97.2223 75.6008C97.0615 76.0029 96.9811 76.405 96.8202 76.8072C96.4181 77.8527 96.0964 78.8983 95.6942 79.8634C95.1312 81.2306 94.6487 82.437 94.1661 83.563C93.201 85.7345 92.1555 87.906 91.1099 89.9167C88.9384 94.0184 86.3648 97.8789 83.389 101.578C82.4239 102.785 81.3783 103.991 80.3328 105.117C77.92 107.691 75.3464 110.184 72.6119 112.436C71.5663 113.24 70.6012 114.125 69.5557 114.849C67.6254 116.297 65.6148 117.664 63.3628 119.111C62.1564 119.916 60.8696 120.64 59.5828 121.363C57.17 122.731 54.5964 124.098 51.9423 125.465L51.8619 125.304ZM53.0683 122.811C53.7117 122.489 54.4355 122.168 55.0789 121.766C56.1245 121.203 57.2504 120.64 58.296 120.077C59.3415 119.514 60.3871 118.87 61.3522 118.307C62.3977 117.664 63.4433 117.02 64.4888 116.377C66.7407 114.929 68.8318 113.401 70.8425 111.873C71.888 111.069 72.9336 110.184 73.9791 109.299C76.794 106.806 79.4481 104.072 81.8609 101.257C82.9869 99.97 84.0324 98.6027 84.9975 97.155C86.6061 94.9031 88.1342 92.4903 89.5014 90.0775C90.1448 88.9515 90.7078 87.906 91.1904 86.9409C91.6729 85.8954 92.2359 84.8498 92.7185 83.8043C94.0053 80.9893 95.1312 78.0136 96.0964 75.0378C96.9811 72.4641 97.7049 69.7297 98.4287 66.8343C98.7504 65.4671 99.0721 64.0998 99.3134 62.7326C102.209 48.7384 103.013 31.9293 101.807 12.7074V11.6618H100.681C96.4985 11.6618 90.8687 9.97287 84.3541 8.04264C75.4268 5.46899 64.4084 2.25194 52.9878 2.09109H50.2533C37.6264 2.33236 26.3667 5.71027 17.359 8.36434C11.5683 10.1337 6.50141 11.5814 2.96265 11.6618H1.91711V12.7074C0.871566 29.8382 1.43455 45.1996 3.60606 58.2287C4.41032 62.8934 5.45587 67.4777 6.74269 72.062C7.62738 75.1182 8.67292 78.1744 9.87932 81.0698C10.8444 83.4826 11.89 85.7345 13.0159 87.906C23.0692 107.208 38.3502 116.779 50.7359 122.891H53.0683V122.811Z" fill="#010B40"/>
<path d="M83.067 34.5029H82.2627V35.3072H83.067V34.5029Z" fill="#010B40"/>
<path d="M55.7224 121.041V78.576L54.8377 78.7369L53.5509 78.8977C53.39 78.8977 53.2292 78.8977 52.9879 78.8977H31.1924C29.2621 78.8977 27.734 77.3696 27.734 75.4394C27.734 73.5092 29.2621 71.9006 31.1924 71.8202H50.3338L50.6555 71.4985C50.8968 71.2572 51.2185 71.016 51.5402 70.7747L55.642 68.3619V46.1642H12.9356V89.8357C12.6139 89.2727 12.3726 88.7902 12.1313 88.2272V46.1642H6.74274V75.2786C6.42103 74.3939 6.17976 73.5092 5.93848 72.6245V33.296C5.93848 29.5964 8.91425 26.6206 12.6139 26.6206H56.2854C59.985 26.6206 62.9608 29.5964 62.9608 33.296V64.2601L64.5693 63.4559C67.5451 62.0082 70.6817 60.8018 73.8987 59.9975L75.7485 59.515L74.4617 58.1477C72.5315 56.0567 71.4055 53.3222 71.4055 50.5072V41.2582L70.2796 39.0867C69.9578 38.4433 69.797 37.7194 69.797 37.076C69.797 35.6284 70.5208 34.1807 71.7272 33.3764L79.609 27.7466C80.4937 27.1032 81.5392 26.7815 82.6652 26.7815C83.7912 26.7815 84.8367 27.1032 85.7214 27.7466L93.6032 33.3764C95.453 34.6632 96.016 37.076 95.0509 39.1671L94.0053 41.3386V50.5877C94.0053 53.5634 92.8794 56.2979 90.8687 58.389L89.421 59.9171L92.5577 60.5605C94.4075 60.9627 96.0964 61.8474 97.4637 63.2146L97.5441 63.3754C98.5092 64.3406 99.233 65.547 99.7156 66.8338C99.5547 67.3968 99.4743 67.9598 99.3135 68.5227C99.1526 67.7185 98.9113 66.9142 98.5092 66.1904C98.1071 65.3861 97.5441 64.5818 96.9007 63.9384C95.6943 62.732 94.0858 61.8473 92.3968 61.5256L91.2708 61.2844L87.4908 66.9142L83.1478 64.0189V81.5518H93.2011V72.2223H94.0053V78.4956H96.2573C96.1768 78.7369 96.016 79.0586 95.9356 79.2999H94.0053V83.9646C93.764 84.608 93.4423 85.171 93.2011 85.8144V82.4365H86.204V87.8251H92.2359C92.0751 88.0663 91.9947 88.388 91.8338 88.6293H83.1478V101.98C82.9065 102.302 82.5848 102.624 82.3435 103.026V88.6293H72.2902V112.918C72.0489 113.159 71.7272 113.401 71.4859 113.561V73.0266H67.3038L62.9608 75.1981V119.593C62.7195 119.754 62.3978 119.915 62.1565 120.076V115.09H56.7679V120.478H61.4327C60.9501 120.8 60.4675 121.041 59.985 121.282H55.8832L55.7224 121.041ZM56.6071 78.013V113.964H61.9956V75.2786L56.6071 78.013ZM79.9307 87.5034H85.3193V82.1148H79.9307V87.5034ZM72.1294 87.5034H79.046V82.1148H72.1294V87.5034ZM72.1294 81.2301H82.1827V63.6972L77.8396 66.5925L74.4617 61.6061L73.4966 60.9627C70.6817 61.6865 67.8668 62.732 65.2931 64.0189L64.328 64.5014L67.3038 71.9811H72.1294V81.3105V81.2301ZM31.1119 72.7853C30.3881 72.7853 29.7447 73.107 29.2621 73.5896C28.7796 74.0722 28.5383 74.796 28.5383 75.5198C28.5383 76.9675 29.7447 78.1739 31.2728 78.1739H53.2292C54.6768 78.1739 55.8832 76.8871 55.8832 75.4394C55.8832 73.9917 54.6768 72.7853 53.1487 72.7853H31.1924H31.1119ZM62.4782 65.4665H62.3174C62.1565 65.6274 62.0761 65.7078 61.9152 65.7882L52.4249 71.3377L54.4356 72.2223C55.642 72.7853 56.4462 73.9917 56.5266 75.2786V77.0479L66.4995 72.0615L63.6042 64.8231L62.4782 65.4665ZM56.6071 67.9597L61.9956 64.8231V46.2446H56.6071V67.9597ZM74.5422 60.7214L78.0809 65.547L82.6652 62.4908L87.2495 65.547L90.3861 60.8822L88.1342 60.4801L87.8125 60.641C86.9278 61.1235 85.9627 61.4452 84.9171 61.6061L82.6652 62.0886L80.4133 61.6061C79.3677 61.3648 77.1962 60.641 76.2311 60.078L74.5422 60.7214ZM72.1294 50.5072C72.1294 56.2979 76.8745 60.9627 82.5848 60.9627C84.5954 60.9627 86.5257 60.3997 88.1342 59.3541H88.2146L88.5363 59.1129C91.3513 57.1022 93.0402 53.9656 93.0402 50.5072V46.2446H72.0489V50.5072H72.1294ZM48.8057 45.4404H61.9956V33.3764C61.9956 30.1594 59.422 27.5857 56.2049 27.5857H48.8057V45.4404ZM72.1294 45.4404H93.1206V41.5799H72.1294V45.4404ZM20.7369 45.4404H48.0015V27.5857H20.7369V45.4404ZM12.5334 27.5053C9.31638 27.5053 6.74274 30.1594 6.74274 33.296V45.3599H19.9327V27.5053H12.5334ZM82.6652 27.5053C81.7001 27.5053 80.8154 27.827 80.0916 28.3096L72.2098 33.9394C71.2447 34.6632 70.6817 35.7892 70.6817 36.9956C70.6817 37.5586 70.8425 38.1216 71.0838 38.6846L72.0489 40.6952H93.3619L94.327 38.6846C94.5683 38.202 94.7292 37.5586 94.7292 36.9956C94.7292 35.7892 94.1662 34.6632 93.2011 33.9394L85.3193 28.3096C84.515 27.7466 83.6303 27.5053 82.7456 27.5053H82.6652Z" fill="#010B40"/>
<path d="M26.9302 32.8945H26.126V33.6988H26.9302V32.8945Z" fill="#010B40"/>
<path d="M42.5325 32.8945H32.3184V33.6988H42.5325V32.8945Z" fill="#010B40"/>
<path d="M42.533 39.1675H26.126V39.9717H42.533V39.1675Z" fill="#010B40"/>
</svg>
