<svg width="101" height="121" viewBox="0 0 101 121" fill="none" xmlns="http://www.w3.org/2000/svg">
<path fill-rule="evenodd" clip-rule="evenodd" d="M99.8325 9.93457C95.3309 9.62412 89.7427 7.99423 83.3007 6.13149C74.1423 3.49262 62.7331 0.155228 51.091 0H50.4701H49.9268C36.5772 0.0776138 24.7023 3.57024 15.0782 6.44195C9.41236 8.14945 4.36746 9.62412 0.486763 9.85696C-0.677445 29.1828 0.253922 46.1802 3.20325 60.306C10.8094 97.0173 31.1442 111.609 50.1596 121H50.2372C69.2526 111.609 89.5875 97.0173 97.1936 60.306C100.065 46.1802 100.997 29.2604 99.8325 9.93457ZM86.5605 87.0051C76.8588 104.313 62.7331 113.006 51.3238 118.672H49.073C37.6638 113.006 23.5381 104.313 13.8363 87.0051C3.74654 69.0763 -0.134148 44.7056 1.88381 12.3406L1.96143 11.3316H2.97041C6.46303 11.254 11.2751 9.85696 16.9409 8.14945C25.7889 5.51058 36.7324 2.2508 49.073 2.09557H51.3238C62.4226 2.32842 73.0557 5.35536 81.6709 7.839C87.9576 9.62412 93.3905 11.254 97.4265 11.3316H98.4354L98.5131 12.3406C100.531 44.7056 96.6503 69.0763 86.5605 87.0051Z" fill="white"/>
<path fill-rule="evenodd" clip-rule="evenodd" d="M77.4022 62.9448L64.9064 69.3868C63.975 68.2226 62.578 67.524 61.0257 67.524H52.7986C51.9449 67.524 51.9449 67.524 51.324 66.9031L51.2464 66.8255C44.8044 60.7716 39.3714 61.1597 33.1623 63.5657C31.9981 64.0314 31.9205 64.0314 30.9115 64.0314H28.5055C28.1951 62.4791 26.8756 61.2373 25.1681 61.2373H19.1142C17.2515 61.2373 15.6992 62.7896 15.6992 64.6523V80.5632C15.6992 82.4259 17.2515 83.9782 19.1142 83.9782H25.1681C26.798 83.9782 28.1951 82.814 28.5055 81.1841H32.3862C32.7743 81.1841 32.7743 81.1841 33.1623 81.3393L49.3836 85.6857C50.0822 85.8409 50.7031 86.0737 51.324 86.229C53.3419 86.7723 54.9718 87.3156 56.6017 87.3156C58.4645 87.3156 60.4824 86.6946 63.0437 84.9871L82.3695 71.1719C84.6203 69.6196 85.2412 66.7479 83.9218 64.5747C82.6024 62.4015 79.8083 61.703 77.4022 62.9448ZM26.798 80.5632C26.798 81.4945 26.0995 82.193 25.1681 82.193H19.1142C18.1829 82.193 17.4843 81.4945 17.4843 80.5632V64.6523C17.4843 63.7209 18.1829 63.0224 19.1142 63.0224H25.1681C26.0995 63.0224 26.798 63.7209 26.798 64.6523V80.5632ZM81.4382 69.6972L62.1123 83.4349C57.8435 86.229 55.9808 85.6857 51.7897 84.5215C51.1688 84.3662 50.5478 84.1334 49.7717 83.9782L34.1713 79.787L33.7056 79.6318C33.1623 79.4766 33.0071 79.4766 32.4638 79.4766H28.5831V65.8165H30.9115H30.9891C32.1534 65.7389 32.4638 65.7389 33.8609 65.1956C39.7595 62.8672 44.2611 62.6344 50.0822 68.0673L50.1598 68.1449C50.9359 68.9211 51.4016 69.2315 52.7986 69.2315H61.0257C62.8108 69.2315 64.2079 70.7062 64.2079 72.4137C64.2079 74.1988 62.7332 75.5959 61.0257 75.5959H47.6761C47.2104 75.5959 46.8224 75.9839 46.8224 76.4496C46.8224 76.9153 47.2104 77.3034 47.6761 77.3034H61.0257C63.7422 77.3034 65.993 75.0526 65.993 72.3361C65.993 71.7928 65.9154 71.2495 65.7602 70.7838L78.256 64.4195C79.8859 63.5657 81.671 64.0314 82.5247 65.3508C83.3785 66.8255 82.9128 68.6882 81.4382 69.6972Z" fill="white"/>
<path fill-rule="evenodd" clip-rule="evenodd" d="M45.4252 47.4997C45.5029 47.4997 45.5029 47.4997 45.4252 47.4997C45.5805 47.7325 49.8492 53.5536 54.118 57.4343C55.8255 58.9865 57.3778 60.1507 58.7748 61.0045C59.7062 61.5478 60.5599 61.7806 61.4137 61.7806C62.2674 61.7806 63.1212 61.5478 64.0526 61.0045C69.796 57.5895 78.4887 47.8101 80.5843 41.2906C80.8948 40.3592 80.8948 39.8935 80.8948 39.195V27.4753C80.8948 27.1649 80.8948 26.8544 80.8948 26.6216C80.8948 24.9917 80.7395 24.6812 79.2649 23.9051C79.032 23.8275 78.7992 23.6722 78.4887 23.4394L61.8018 15.8332C61.5689 15.7556 61.3361 15.7556 61.1032 15.8332L44.3386 23.4394C44.0282 23.5946 43.7953 23.7498 43.5625 23.8275C42.1655 24.6036 41.9326 24.9141 41.9326 26.5439C41.9326 26.7768 41.9326 27.0872 41.9326 27.3977V38.7293V39.1174C41.9326 39.8159 41.9326 40.3592 42.2431 41.213C42.7864 43.0757 43.873 45.1713 45.4252 47.4997ZM43.7177 39.195V38.8069V27.4753C43.7177 27.1649 43.7177 26.8544 43.7177 26.6216C43.7177 26.3111 43.7177 25.923 43.7177 25.8454C43.7953 25.7678 44.1058 25.6126 44.4163 25.4574C44.6491 25.3797 44.8819 25.2245 45.1148 25.0693L61.4137 17.6184L77.635 24.9917C77.9454 25.1469 78.1783 25.3021 78.4111 25.3797C78.7216 25.535 79.032 25.6902 79.1097 25.7678C79.1097 25.8454 79.1097 26.2335 79.1097 26.5439C79.1097 26.7768 79.1097 27.0872 79.1097 27.3977V38.7293V39.1174C79.1097 39.7383 79.1097 40.0488 78.8768 40.6697C76.9365 46.7235 68.3989 56.1924 63.1212 59.3746C61.8794 60.1507 60.8704 60.1507 59.6286 59.3746C58.3091 58.5985 56.8345 57.4343 55.2046 56.0372C51.1687 52.3894 46.9775 46.6459 46.8223 46.4131C45.3476 44.2399 44.3386 42.2996 43.873 40.6697C43.7177 40.1264 43.7177 39.8159 43.7177 39.195Z" fill="white"/>
<path fill-rule="evenodd" clip-rule="evenodd" d="M58.4647 46.1802C58.6199 46.413 58.8528 46.4906 59.1632 46.4906C59.3961 46.4906 59.7065 46.3354 59.8618 46.1802L71.8143 30.5022C71.9695 30.3469 71.9695 30.1141 71.9695 29.8813C71.9695 29.6484 71.8143 29.4932 71.6591 29.338C71.5038 29.1827 71.271 29.1827 71.1158 29.1827C70.8829 29.1827 70.5725 29.2604 70.4172 29.4932L60.0946 43.0756L59.1632 44.3174L58.3095 43.0756L53.8079 36.7889C53.6526 36.5561 53.4198 36.4784 53.1093 36.4784C52.9541 36.4784 52.7989 36.4784 52.6437 36.6337C52.2556 36.8665 52.178 37.4098 52.4884 37.7979L58.4647 46.1802Z" fill="white"/>
</svg>
