<svg width="188" height="69" viewBox="0 0 188 69" fill="none" xmlns="http://www.w3.org/2000/svg">
<path fill-rule="evenodd" clip-rule="evenodd" d="M115.16 55.3809L117.247 59.5256L121.92 60.2294L118.499 63.4356L119.333 67.9713L115.16 65.8599L110.988 67.9713L111.739 63.4356L108.4 60.2294L113.074 59.5256L115.16 55.3809Z" fill="#031059"/>
<path fill-rule="evenodd" clip-rule="evenodd" d="M74.6004 55.9277L76.6868 60.0724L81.3604 60.7762L78.0221 63.9825L78.7732 68.5964L74.6004 66.4068L70.4275 68.5964L71.2621 63.9825L67.9238 60.7762L72.514 60.0724L74.6004 55.9277Z" fill="#031059"/>
<path fill-rule="evenodd" clip-rule="evenodd" d="M115.328 7.99002C115.328 7.99002 167.488 6.11318 187.602 0.248047C186.183 3.06331 183.429 6.817 183.429 6.817C183.429 6.817 130.767 13.6988 119.417 13.3859C119.083 14.3244 118.416 16.514 118.416 16.514C118.416 16.514 168.156 12.4475 180.09 10.3361C179.005 12.5257 177.67 15.341 177.67 15.341C177.67 15.341 127.262 23.474 116.329 20.7369C115.912 22.2228 115.662 23.865 115.662 23.865C115.662 23.865 161.313 20.8933 171.244 18.8601C169.992 20.6587 167.405 24.647 167.405 24.647C167.405 24.647 118.082 28.8699 113.909 28.5571C113.408 29.4173 112.49 31.6852 112.49 31.6852C117.832 30.9814 146.624 28.9481 160.144 27.7751C159.143 29.0263 157.14 32.0762 156.389 33.562C151.632 33.562 113.492 36.1427 110.821 35.9081C110.237 36.8465 110.07 37.7849 109.82 39.0361C112.073 39.0361 129.599 38.0195 136.025 37.0811C134.94 38.6451 132.854 41.9296 132.186 43.259C126.511 43.259 105.23 42.7898 101.808 43.259C100.723 40.7566 95.5486 29.6519 94.4636 25.82C93.796 29.0263 88.2878 40.913 87.7036 43.259C84.0315 43.0244 59.5787 43.259 56.6577 42.868C55.1555 40.7566 54.4043 39.4271 52.8187 37.4721C57.6592 38.0977 76.9377 38.4887 78.6903 38.6451C78.3565 37.5503 78.6903 37.3157 78.3565 35.9081C77.4384 35.9081 38.7979 34.5004 32.4552 33.562C31.0364 31.6852 29.6177 29.5737 28.6996 27.3841C33.2063 28.6353 73.4325 31.6852 76.0197 31.6852C75.5189 30.2775 74.8513 29.8083 74.6009 28.9481C73.516 29.0263 25.3614 25.2726 21.7727 25.429C20.2705 23.3958 18.5179 21.2843 17.5999 18.8601C24.026 19.6421 69.5935 24.9598 73.1821 23.865C72.8483 22.8484 72.431 21.9881 71.7634 20.7369C64.0853 21.4407 14.1781 16.2794 11.1737 15.732C10.6729 14.3244 9.00381 11.9783 7.75196 9.94507C13.9278 11.5091 62.4997 15.4974 69.7604 16.123C69.1762 15.4192 69.0928 15.5756 68.7589 13.777C63.7515 14.0116 7.25122 7.36441 3.91294 6.42599C3.07837 5.01836 0.491211 0.248047 0.491211 0.248047C0.491211 0.248047 59.0779 10.1015 72.9318 7.99002C76.9377 17.296 80.8602 28.1661 80.8602 28.1661H85.3668L90.875 16.905L88.4548 14.168L86.7022 17.687L84.9496 12.2911L91.8765 8.77204L99.1372 7.99002L103.978 27.3841" fill="#031059"/>
<path fill-rule="evenodd" clip-rule="evenodd" d="M94.8813 39.8965L98.3031 49.8281L109.486 49.7499L100.389 55.9278L103.895 65.8595L94.8813 59.6815L85.868 65.8595L89.3732 55.9278L80.2764 49.7499L91.4596 49.8281L94.8813 39.8965Z" fill="#031059"/>
</svg>
