<svg width="101" height="121" viewBox="0 0 101 121" fill="none" xmlns="http://www.w3.org/2000/svg">
<path fill-rule="evenodd" clip-rule="evenodd" d="M50.1259 121C31.1105 111.609 10.7757 97.0173 3.1695 60.306C0.220176 46.1802 -0.633576 29.1828 0.453018 9.85696C4.33371 9.54651 9.301 8.07184 15.0444 6.44195C24.5909 3.57024 36.4659 0.0776139 49.8154 0H50.3587H51.0573C62.7769 0.155228 74.1086 3.41501 83.3446 6.13149C89.7866 7.99423 95.3748 9.62412 99.8764 9.93457C101.041 29.2604 100.109 46.2579 97.2375 60.3836C89.5537 97.0173 69.2189 111.609 50.1259 121ZM51.2901 118.594C62.6993 112.928 76.8251 104.235 86.5268 86.9275C96.539 68.9987 100.42 44.5504 98.4017 12.263V11.254H97.3927C93.3568 11.1764 87.9238 9.62412 81.6371 7.76139C73.022 5.27774 62.3889 2.17319 51.2901 2.01796H49.0393C36.6987 2.17319 25.7551 5.43297 16.9072 8.07184C11.319 9.77935 6.42929 11.1764 2.93666 11.254H1.92768L1.85007 12.263C-0.167893 44.628 3.7128 69.0763 13.725 87.0051C23.4267 104.313 37.5524 113.006 48.9617 118.672H51.2901V118.594ZM50.1259 17.3079C42.2869 17.3079 34.9912 20.3348 29.403 25.8454C28.9373 26.3111 28.9373 27.0096 29.403 27.4753C29.6358 27.7081 29.8687 27.7858 30.1791 27.7858C30.4896 27.7858 30.8 27.6305 30.9553 27.4753C36.0778 22.3528 42.9078 19.5587 50.0483 19.5587C57.2664 19.5587 64.0188 22.3528 69.1413 27.4753C69.3741 27.7081 69.607 27.7858 69.9174 27.7858C70.2279 27.7858 70.5383 27.6305 70.6936 27.4753C71.1592 27.0096 71.1592 26.3111 70.6936 25.8454C65.3382 20.3348 57.9649 17.3079 50.1259 17.3079ZM50.1259 26.932C44.8481 26.932 39.9585 28.95 36.233 32.6754C36.0002 32.9083 35.9226 33.1411 35.9226 33.4516C35.9226 33.762 36.0778 34.0725 36.233 34.2277C36.4658 34.4606 36.6987 34.5382 37.0091 34.5382C37.3196 34.5382 37.6301 34.3829 37.7853 34.2277C41.0451 30.9679 45.4691 29.1052 50.0483 29.1052C54.7051 29.1052 59.0515 30.8903 62.3113 34.2277C62.5441 34.4606 62.7769 34.5382 63.0874 34.5382C63.3979 34.5382 63.7083 34.3829 63.8635 34.2277C64.3292 33.762 64.3292 33.0635 63.8635 32.5978C60.3709 29.0276 55.4036 26.932 50.1259 26.932ZM56.4126 41.4458C56.7231 41.4458 57.0335 41.3682 57.1888 41.1353C57.6544 40.6697 57.6544 39.9711 57.1888 39.5055C55.326 37.6427 52.8424 36.5561 50.1259 36.5561C47.4094 36.5561 44.9258 37.5651 43.063 39.5055C42.5973 39.9711 42.5973 40.6697 43.063 41.1353C43.2959 41.3682 43.5287 41.4458 43.8392 41.4458C44.1496 41.4458 44.4601 41.2906 44.6153 41.1353C46.09 39.6607 48.0303 38.8845 50.0483 38.8845C52.1438 38.8845 54.0842 39.6607 55.4812 41.1353C55.7917 41.3682 56.1022 41.4458 56.4126 41.4458ZM48.1855 46.2579C48.1855 47.3445 49.0393 48.2758 50.2035 48.2758C51.3677 48.2758 52.2215 47.4221 52.2215 46.2579C52.2215 45.1713 51.3677 44.2399 50.2035 44.2399C49.0393 44.2399 48.1855 45.1713 48.1855 46.2579ZM43.2183 73.5779C41.4331 71.56 39.1047 70.4734 36.6211 70.4734C34.1374 70.4734 31.7314 71.56 30.0239 73.5779C26.4537 77.6139 26.4537 84.211 30.0239 88.247L36.6211 95.6979L43.2183 88.247C46.7885 84.211 46.7885 77.6139 43.2183 73.5779ZM42.054 87.238L36.6211 93.3695L31.1881 87.238C28.0836 83.7454 28.0836 78.0795 31.1881 74.6645C32.6628 73.0346 34.6031 72.1033 36.6211 72.1033C38.639 72.1033 40.5794 73.0346 42.054 74.6645C45.081 78.0795 45.081 83.7454 42.054 87.238ZM64.7173 70.0853L69.7622 64.4195C72.4787 61.3926 72.4787 56.4253 69.7622 53.3983C68.4428 51.9237 66.6576 51.0699 64.7173 51.0699C62.8546 51.0699 61.0694 51.9237 59.6724 53.3983C56.9559 56.4253 56.9559 61.3926 59.6724 64.4195L64.7173 70.0853ZM60.8366 54.4073C61.8456 53.2431 63.2426 52.6222 64.7173 52.6222C66.192 52.6222 67.5114 53.2431 68.598 54.4073C70.7712 56.891 70.7712 60.9269 68.598 63.4105L64.7173 67.7569L60.8366 63.4105C58.6634 60.9269 58.6634 56.891 60.8366 54.4073ZM68.2875 94.3008C68.1323 94.9218 67.8995 95.465 67.5114 96.0083C67.3562 96.2412 67.1233 96.3188 66.8905 96.3188C66.7353 96.3188 66.58 96.2412 66.4248 96.1636C66.1143 95.9307 66.0367 95.3874 66.2696 95.077C66.5024 94.7665 66.6576 94.3785 66.8129 93.9904C66.8905 93.6023 67.3562 93.2919 67.7442 93.3695C68.1323 93.4471 68.3651 93.9128 68.2875 94.3008ZM51.9886 75.1302C52.4543 75.1302 52.7648 75.4407 52.7648 75.9064C52.7648 76.372 52.4543 76.6825 51.9886 76.6825H51.6782C51.1349 76.6825 50.6692 76.6049 50.1259 76.372C49.7378 76.2168 49.505 75.7511 49.6602 75.3631C49.8154 74.975 50.2811 74.7421 50.6692 74.8974C50.9796 75.0526 51.2901 75.0526 51.6782 75.0526H51.9886V75.1302ZM49.1945 69.8525C48.9617 69.4644 49.0393 68.9987 49.4274 68.7659C49.9707 68.4554 50.5916 68.2226 51.2125 68.145C51.6782 68.0674 51.9886 68.3778 52.0662 68.8435C52.1439 69.3092 51.8334 69.6196 51.3677 69.6972C50.9796 69.7749 50.5916 69.8525 50.2035 70.0853C50.0483 70.1629 49.9707 70.2405 49.8154 70.2405C49.5826 70.2405 49.3497 70.0853 49.1945 69.8525ZM41.666 96.8621C41.666 97.3278 41.3555 97.6382 40.8898 97.6382H39.3376C38.8719 97.6382 38.5614 97.3278 38.5614 96.8621C38.5614 96.3964 38.8719 96.086 39.3376 96.086H40.8898C41.3555 96.086 41.666 96.3964 41.666 96.8621ZM56.1798 82.1155C56.6455 82.1155 56.9559 82.4259 56.9559 82.8916C56.9559 83.3573 56.6455 83.6677 56.1798 83.6677H54.6275C54.2394 83.6677 53.8514 83.3573 53.8514 82.8916C53.8514 82.4259 54.1618 82.1155 54.6275 82.1155C54.7051 82.1155 54.7827 82.1155 54.8603 82.1155H56.1798ZM53.6185 68.9211C53.6185 68.4554 53.929 68.145 54.3947 68.145H55.9469C56.4126 68.145 56.7231 68.4554 56.7231 68.9211C56.7231 69.3868 56.4126 69.6972 55.9469 69.6972H54.3947C54.0066 69.6972 53.6185 69.3868 53.6185 68.9211ZM65.4934 82.1155C65.9591 82.1155 66.2696 82.4259 66.2696 82.8916C66.2696 83.3573 65.9591 83.6677 65.4934 83.6677H63.9412C63.4755 83.6677 63.165 83.3573 63.165 82.8916C63.165 82.4259 63.4755 82.1155 63.9412 82.1155H65.4934ZM65.9591 76.6825H64.4068C63.9412 76.6825 63.6307 76.372 63.6307 75.9064C63.6307 75.4407 63.9412 75.1302 64.4068 75.1302H65.9591C66.4248 75.1302 66.7353 75.4407 66.7353 75.9064C66.7353 76.372 66.3472 76.6825 65.9591 76.6825ZM58.5082 82.8916C58.5082 82.4259 58.8186 82.1155 59.2843 82.1155H60.8366C61.3023 82.1155 61.6127 82.4259 61.6127 82.8916C61.6127 83.3573 61.3023 83.6677 60.8366 83.6677H59.2843C58.8963 83.6677 58.5082 83.3573 58.5082 82.8916ZM59.0515 69.6972C58.5858 69.6972 58.2753 69.3868 58.2753 68.9211C58.2753 68.4554 58.5858 68.145 59.0515 68.145H60.6038C61.0694 68.145 61.3799 68.4554 61.3799 68.9211C61.3799 69.3868 61.0694 69.6972 60.6038 69.6972H59.0515ZM56.6455 75.1302C57.1111 75.1302 57.4216 75.4407 57.4216 75.9064C57.4216 76.372 57.1111 76.6825 56.6455 76.6825H55.0932C54.6275 76.6825 54.317 76.372 54.317 75.9064C54.317 75.4407 54.6275 75.1302 55.0932 75.1302H56.6455ZM61.3023 76.6825H59.75C59.2843 76.6825 58.9739 76.372 58.9739 75.9064C58.9739 75.4407 59.2843 75.1302 59.75 75.1302H61.3023C61.768 75.1302 62.0784 75.4407 62.0784 75.9064C62.0784 76.372 61.6904 76.6825 61.3023 76.6825ZM73.022 79.399C73.022 79.7871 72.9444 80.1751 72.8668 80.5632C72.7891 80.8736 72.4787 81.1065 72.0906 81.1065C72.013 81.1065 71.9354 81.1065 71.8578 81.1065C71.4697 80.9513 71.2369 80.5632 71.3145 80.1751C71.3921 79.9423 71.3921 79.6318 71.3921 79.399C71.3921 79.2438 71.3921 79.0885 71.3921 78.9333C71.3145 78.5452 71.6249 78.0795 72.013 78.0795C72.4011 78.0019 72.8668 78.3124 72.8668 78.7005C73.022 78.9333 73.022 79.1661 73.022 79.399ZM60.2933 96.8621C60.2933 97.3278 59.9829 97.6382 59.5172 97.6382H57.9649C57.4992 97.6382 57.1888 97.3278 57.1888 96.8621C57.1888 96.3964 57.4992 96.086 57.9649 96.086H59.5172C59.9829 96.086 60.2933 96.3964 60.2933 96.8621ZM55.6365 96.8621C55.6365 97.3278 55.326 97.6382 54.8603 97.6382H53.3081C52.8424 97.6382 52.5319 97.3278 52.5319 96.8621C52.5319 96.3964 52.8424 96.086 53.3081 96.086H54.8603C55.326 96.086 55.6365 96.3964 55.6365 96.8621ZM62.6217 90.653H61.0694C60.6038 90.653 60.2933 90.3425 60.2933 89.8769C60.2933 89.4112 60.6038 89.1007 61.0694 89.1007H62.6217C63.0874 89.1007 63.3979 89.4112 63.3979 89.8769C63.3979 90.3425 63.0874 90.653 62.6217 90.653ZM57.9649 90.653H56.4126C55.9469 90.653 55.6365 90.3425 55.6365 89.8769C55.6365 89.4112 55.9469 89.1007 56.4126 89.1007H57.9649C58.4306 89.1007 58.741 89.4112 58.741 89.8769C58.741 90.3425 58.4306 90.653 57.9649 90.653ZM64.9501 96.8621C64.9501 97.3278 64.6397 97.6382 64.174 97.6382H62.6217C62.156 97.6382 61.8456 97.3278 61.8456 96.8621C61.8456 96.3964 62.156 96.086 62.6217 96.086H64.0964C64.5621 96.086 64.9501 96.3964 64.9501 96.8621ZM66.2696 91.662C66.0367 91.3515 65.7263 91.1187 65.3382 90.8858C64.9501 90.7306 64.7949 90.2649 64.9501 89.8769C65.1054 89.4888 65.571 89.3336 65.9591 89.4888C66.5024 89.7992 67.0457 90.1873 67.4338 90.653C67.6666 90.9634 67.6666 91.5067 67.2786 91.7396C67.1233 91.8172 66.9681 91.8948 66.8129 91.8948C66.6576 91.9724 66.4248 91.8948 66.2696 91.662ZM70.8488 82.3483C71.004 82.7364 70.8488 83.2021 70.4607 83.3573C69.9174 83.5901 69.3741 83.6677 68.8308 83.6677H68.6756C68.2099 83.6677 67.8995 83.3573 67.8995 82.8916C67.8995 82.4259 68.2099 82.1155 68.6756 82.1155H68.8308C69.2189 82.1155 69.5294 82.0379 69.9174 81.8826C70.2279 81.7274 70.6936 81.9602 70.8488 82.3483ZM48.4184 74.2765C48.1079 74.2765 47.7975 74.0436 47.6422 73.7332C47.487 73.2675 47.4094 72.8794 47.4094 72.4137C47.4094 72.2585 47.4094 72.0257 47.4094 71.8704C47.487 71.4824 47.8751 71.1719 48.2632 71.1719C48.6512 71.2495 48.9617 71.6376 48.9617 72.0257C48.9617 72.1033 48.9617 72.2585 48.9617 72.3361C48.9617 72.6466 49.0393 72.8794 49.1169 73.1899C49.2721 73.5779 49.0393 74.0436 48.6512 74.1988C48.5736 74.2765 48.496 74.2765 48.4184 74.2765ZM46.3228 96.8621C46.3228 97.3278 46.0124 97.6382 45.5467 97.6382H43.9944C43.5287 97.6382 43.2183 97.3278 43.2183 96.8621C43.2183 96.3964 43.5287 96.086 43.9944 96.086H45.5467C46.0124 96.086 46.3228 96.3964 46.3228 96.8621ZM52.9976 90.2649C52.4543 90.0321 51.911 89.644 51.5229 89.1007C51.2125 88.7903 51.2901 88.247 51.6006 88.0141C51.911 87.7037 52.4543 87.7813 52.6871 88.0917C52.92 88.4022 53.3081 88.635 53.6185 88.7903C54.0066 88.9455 54.1618 89.4112 54.0066 89.7992C53.8514 90.1097 53.6185 90.2649 53.3081 90.2649C53.2304 90.3425 53.1528 90.3425 52.9976 90.2649ZM71.1592 76.7601C71.004 76.993 70.7712 77.1482 70.4607 77.1482C70.3055 77.1482 70.2279 77.1482 70.0727 77.0706C69.6846 76.8377 69.3741 76.7601 68.9084 76.6825C68.4428 76.6825 68.1323 76.2944 68.2099 75.8287C68.2099 75.3631 68.598 75.0526 69.0637 75.1302C69.6846 75.2078 70.3055 75.3631 70.8488 75.6735C71.3145 75.9064 71.3921 76.372 71.1592 76.7601ZM50.9796 96.8621C50.9796 97.3278 50.6692 97.6382 50.2035 97.6382H48.6512C48.1855 97.6382 47.8751 97.3278 47.8751 96.8621C47.8751 96.3964 48.1855 96.086 48.6512 96.086H50.2035C50.6692 96.086 50.9796 96.3964 50.9796 96.8621ZM51.3677 86.5395C51.2901 86.5395 51.2901 86.5395 51.2125 86.5395C50.8244 86.4618 50.514 86.0738 50.5916 85.6081C50.7468 84.9872 50.9796 84.3663 51.3677 83.9006C51.6006 83.5901 52.1439 83.5125 52.4543 83.7454C52.7648 83.9782 52.8424 84.5215 52.6095 84.832C52.3767 85.1424 52.2215 85.5305 52.1439 85.9185C52.0662 86.229 51.7558 86.5395 51.3677 86.5395ZM64.8725 61.703C66.6576 61.703 68.1323 60.2284 68.1323 58.4432C68.1323 56.6581 66.6576 55.1835 64.8725 55.1835C63.0874 55.1835 61.6127 56.6581 61.6127 58.4432C61.6127 60.2284 63.0874 61.703 64.8725 61.703ZM64.8725 56.3477C66.0367 56.3477 66.9681 57.279 66.9681 58.4432C66.9681 59.6074 66.0367 60.5388 64.8725 60.5388C63.7083 60.5388 62.7769 59.6074 62.7769 58.4432C62.7769 57.279 63.7083 56.3477 64.8725 56.3477ZM39.648 79.8647C39.3376 79.5542 38.9495 79.399 38.5614 79.399V78.4676C38.5614 77.381 37.7077 76.4497 36.5435 76.4497C35.4569 76.4497 34.5255 77.3034 34.5255 78.4676V79.399C34.1374 79.399 33.6717 79.5542 33.4389 79.8647C33.1285 80.1751 32.9732 80.5632 32.9732 81.0289V84.1334C32.9732 85.0648 33.6717 85.7633 34.6031 85.7633H38.4838C39.4152 85.7633 40.1137 85.0648 40.1137 84.1334V81.0289C40.1913 80.5632 39.9585 80.1751 39.648 79.8647ZM35.7673 79.399V78.4676C35.7673 78.0019 36.1554 77.6915 36.5435 77.6915C37.0091 77.6915 37.3196 78.0795 37.3196 78.4676V79.399H35.7673ZM34.1374 81.0289C34.1374 80.8736 34.215 80.796 34.2927 80.7184C34.3703 80.6408 34.5255 80.5632 34.6031 80.5632H38.4838C38.639 80.5632 38.7167 80.6408 38.7943 80.7184C38.8719 80.796 38.9495 80.9513 38.9495 81.0289V84.1334C38.9495 84.3663 38.7166 84.5991 38.4838 84.5991H34.6031C34.3703 84.5991 34.1374 84.3663 34.1374 84.1334V81.0289Z" fill="white"/>
</svg>
