<svg width="104" height="126" viewBox="0 0 104 126" fill="none" xmlns="http://www.w3.org/2000/svg">
<path d="M52.7058 2.89746H51.418V122.582H52.7058V2.89746Z" fill="#010B40"/>
<path d="M99.711 62.1357H4.41406V63.4235H99.711V62.1357Z" fill="#010B40"/>
<path fill-rule="evenodd" clip-rule="evenodd" d="M51.9816 125.48C32.2623 115.741 11.1746 100.609 3.28684 62.5386C0.228328 47.8899 -0.657032 30.2632 0.469789 10.2219C4.49415 9.89993 9.64533 8.37067 15.6014 6.68044C25.5013 3.70241 37.8159 0.0804872 51.6597 0H52.2231H52.867C65.0206 0.160974 76.7717 3.54144 86.3497 6.35849C93.0301 8.29019 98.8252 9.98042 103.493 10.3024C104.701 30.3437 103.735 47.9704 100.757 62.6191C92.8691 100.69 71.7815 115.821 52.0621 125.56L51.9816 125.48ZM53.1889 122.984C65.0206 117.109 79.6692 108.094 89.7301 90.1457C100.113 71.5532 104.137 46.1997 102.045 12.717V11.6706H100.918C96.7325 11.6706 91.0984 9.98042 84.579 8.04872C75.6449 5.47313 64.6181 2.25364 53.1084 2.09267H50.7743C37.9768 2.25364 26.6281 5.63411 17.4526 8.37067C11.6575 10.1414 6.58682 11.5902 2.96489 11.6706H1.91856V12.717C-0.174108 46.1997 3.85025 71.5532 14.2331 90.1457C24.294 108.094 38.9427 117.109 50.7743 122.984H53.1084H53.1889Z" fill="#010B40"/>
</svg>
