<svg width="101" height="121" viewBox="0 0 101 121" fill="none" xmlns="http://www.w3.org/2000/svg">
<path d="M99.8325 9.93457C95.3309 9.62412 89.7427 7.99423 83.3007 6.13149C74.1423 3.49262 62.7331 0.155228 51.091 0H50.4701H49.9268C36.5772 0.0776138 24.7023 3.57024 15.0782 6.44195C9.41236 8.14945 4.36746 9.62412 0.486763 9.85696C-0.677445 29.1828 0.253922 46.1802 3.20325 60.306C10.8094 97.0173 31.1442 111.609 50.1596 121H50.2372C69.2526 111.609 89.5875 97.0173 97.1936 60.306C100.065 46.1802 100.997 29.2604 99.8325 9.93457ZM86.5605 87.0051C76.8588 104.313 62.7331 113.006 51.3238 118.672H49.073C37.6638 113.006 23.5381 104.313 13.8363 87.0051C3.74654 69.0763 -0.134148 44.7056 1.88381 12.3406L1.96143 11.3316H2.97041C6.46303 11.254 11.2751 9.85696 16.9409 8.14945C25.7889 5.51058 36.7324 2.2508 49.073 2.09557H51.3238C62.4226 2.32842 73.0557 5.35536 81.6709 7.839C87.9576 9.62412 93.3905 11.254 97.4265 11.3316H98.4354L98.5131 12.3406C100.531 44.7056 96.6503 69.0763 86.5605 87.0051Z" fill="white"/>
<path d="M50.1602 46.4131C44.7272 46.4131 40.3809 50.8371 40.3809 56.1924C40.3809 61.5478 44.8049 65.9718 50.1602 65.9718C55.5156 65.9718 59.9395 61.5478 59.9395 56.1924C59.9395 50.8371 55.5932 46.4131 50.1602 46.4131ZM50.1602 64.109C45.8138 64.109 42.2436 60.5388 42.2436 56.1924C42.2436 51.8461 45.8138 48.2758 50.1602 48.2758C54.5066 48.2758 58.0768 51.8461 58.0768 56.1924C58.0768 60.5388 54.5066 64.109 50.1602 64.109Z" fill="white"/>
<path d="M22.7616 28.7947H30.135V26.8544H20.8213V36.0128H22.7616V28.7947Z" fill="white"/>
<path d="M22.7616 76.4497H20.8213V85.5305H30.135V83.6678H22.7616V76.4497Z" fill="white"/>
<path d="M70.2617 28.7947H77.635V36.0128H79.4978V26.8544H70.2617V28.7947Z" fill="white"/>
<path d="M76.3927 56.7357L76.7032 56.27L76.3927 55.8043C76.3151 55.6491 74.0643 52.0788 69.7955 48.5086C64.0521 43.7741 57.2997 41.2129 50.3144 41.2129C43.2516 41.2129 36.4992 43.6965 30.7558 48.5086C26.4094 52.0788 24.1586 55.6491 24.081 55.8043L23.7705 56.27L24.081 56.7357C24.081 56.7357 26.3318 60.3835 30.7558 64.0314C36.4992 68.7658 43.2516 71.3271 50.3144 71.3271C57.3773 71.3271 64.1297 68.8434 69.7955 64.0314C74.0643 60.4611 76.2375 56.8909 76.3927 56.7357ZM68.3985 62.6343C62.9655 67.1359 56.834 69.3867 50.2368 69.3867C43.6397 69.3867 37.4305 67.1359 31.9976 62.6343C29.1259 60.3059 27.1855 57.8999 26.3318 56.7357L25.9437 56.27L26.3318 55.8043C27.2631 54.5625 29.1259 52.2341 31.9976 49.9056C37.5082 45.404 43.6397 43.1532 50.2368 43.1532C56.834 43.1532 62.9655 45.404 68.3985 49.9056C71.2702 52.2341 73.1329 54.6401 74.0643 55.8819L74.4524 56.3476L74.0643 56.8133C73.2105 57.8999 71.2702 60.3059 68.3985 62.6343Z" fill="white"/>
<path d="M77.635 83.6678H70.2617V85.5305H79.4978V76.4497H77.635V83.6678Z" fill="white"/>
</svg>
