<svg width="104" height="126" viewBox="0 0 104 126" fill="none" xmlns="http://www.w3.org/2000/svg">
<path d="M17.2985 97.2935C16.9768 96.8915 16.7356 96.4091 16.414 96.007H34.1842C51.2307 96.007 68.2772 96.007 85.2434 96.007H87.1732C86.8515 96.4091 86.6103 96.8915 86.2887 97.2935C85.8062 97.2935 85.2434 97.2935 84.7609 97.2935C84.2785 97.2935 83.3136 97.2935 82.5899 97.2935C62.6487 97.2935 42.7879 97.2935 22.8466 97.2935C2.9054 97.2935 21.4797 97.2935 20.8364 97.2935C19.6303 97.2935 18.4242 97.2935 17.2181 97.2935H17.2985ZM4.35274 67.6229C4.11152 66.7384 3.87029 65.7735 3.70948 64.8086C4.19193 62.8788 4.9156 60.949 5.80009 59.1801C6.04132 58.6976 6.28254 58.1348 6.60417 57.6523C7.00621 57.009 7.32785 56.3658 7.64948 55.6421L8.8556 53.3907L7.32785 53.1494C6.28254 52.9886 5.23723 52.8278 4.27233 52.5866C3.30744 52.4258 2.42295 52.265 1.53846 52.1041C1.53846 51.7021 1.45805 51.2196 1.37764 50.8176H1.69927C2.26213 50.9784 2.9054 51.0588 3.46825 51.1392C5.07642 51.3805 6.28254 51.6217 7.40825 51.8629C7.56907 51.8629 7.72989 51.9433 7.97111 52.0237C8.13193 52.0237 8.21234 52.0237 8.29274 52.0237C9.49887 52.0237 10.5442 51.1392 10.7854 50.0135C10.9462 49.5311 10.9462 48.9682 10.7854 48.4858C10.3029 47.1188 9.8205 46.0735 9.33805 45.1086C9.09683 44.6262 8.69479 44.385 8.45356 44.2241H8.37315L7.97111 43.7417H7.40825C7.40825 43.8221 3.06621 44.6262 3.06621 44.6262C2.34254 44.787 1.53846 44.8674 0.814783 45.0282C0.814783 44.6262 0.814783 44.2241 0.734375 43.7417L3.22703 43.3397C4.43315 43.0984 5.63927 42.9376 6.8454 42.6964C7.08662 42.6964 7.32785 42.6964 7.56907 42.6964C8.8556 42.6964 10.0617 43.5005 10.5442 44.6262C10.705 44.9478 10.7854 45.189 10.9462 45.4303L12.0719 47.9229L19.3891 35.2184C19.6303 34.8164 19.8715 34.3339 20.1127 33.9319C20.5952 33.1278 20.9972 32.3237 21.4797 31.5196C22.7662 29.1878 25.0176 27.4992 27.5907 26.856C28.636 26.6952 29.5205 25.8911 29.7617 24.7654C30.1638 23.6396 30.6462 22.5139 31.0483 21.3882L31.3699 20.5841C31.9327 18.976 33.3801 17.9307 34.9883 17.9307C36.5964 17.9307 35.1491 17.9307 35.2295 17.9307C46.4062 17.9307 57.5026 17.9307 68.5989 17.9307C68.7597 17.9307 68.8401 17.9307 68.8401 17.9307C70.4483 17.9307 71.976 18.976 72.5389 20.5037C72.8605 21.2274 73.1017 21.8707 73.343 22.5943C73.6646 23.3984 73.9862 24.2829 74.3883 25.1674C74.7903 25.8911 75.3532 26.4539 76.0768 26.6952C78.8911 27.4188 81.3034 29.2682 82.6703 31.7609L90.2287 44.8674C90.3895 45.189 90.5503 45.5107 90.8719 45.9127L91.9977 47.7621L93.445 44.7066C93.9275 43.4201 95.0532 42.616 96.4201 42.616C97.787 42.616 96.8222 42.616 96.983 42.616C98.1891 42.7768 99.3148 43.018 100.36 43.1788H100.762C101.566 43.4201 102.451 43.5809 103.255 43.6613C103.255 44.0633 103.255 44.4654 103.174 44.8674C102.612 44.787 102.129 44.7066 101.566 44.6262L100.843 44.4654C99.6364 44.2241 98.3499 44.0633 97.0634 43.8221H96.9026H96.8221C96.0181 43.8221 95.2944 44.1437 94.8119 44.787V44.9478C94.2491 46.0735 93.6862 47.1992 93.2842 48.4054V48.5662C93.2842 48.8074 93.2842 49.0486 93.2842 49.2899C93.2842 50.7372 94.5707 51.8629 96.0181 51.8629H96.1789C96.8222 51.7825 97.4654 51.6217 98.1087 51.5413C98.9932 51.3805 99.7972 51.2197 100.682 51.0588C101.405 50.9784 102.049 50.8176 102.772 50.7372C102.772 51.2196 102.692 51.7021 102.612 52.1041C102.37 52.1041 102.049 52.1041 101.807 52.1846C101.245 52.1846 100.682 52.3454 100.199 52.4258C100.199 52.4258 97.5458 52.8278 96.9026 52.9886L95.3748 53.2299L96.1789 54.838C96.3397 55.1596 96.5005 55.4009 96.5809 55.7225C97.3046 56.9286 97.8675 57.9739 98.3499 59.0192C99.2344 60.7882 99.9581 62.6376 100.441 64.5674C100.28 65.1303 100.199 65.6931 100.038 66.256C99.9581 66.5776 99.8777 66.9797 99.7973 67.3013C99.6364 66.4168 99.4756 65.4519 99.154 64.5674C98.9128 63.8437 98.6715 63.2005 98.4303 62.5572C97.385 60.145 96.0985 57.8131 94.9728 55.5617C94.2491 54.2752 93.6058 52.9082 92.9626 51.6217C92.5605 50.5764 91.5152 49.9331 90.3895 49.9331C89.2638 49.9331 90.2287 49.9331 90.1483 49.9331C69.9658 49.9331 49.703 49.9331 29.5205 49.9331H28.7968C28.636 49.9331 28.5556 49.9331 28.3948 49.9331C28.0732 49.9331 27.7515 49.6919 27.7515 49.3703C27.7515 49.0486 27.9928 48.8074 28.3144 48.727C28.4752 48.727 28.7164 48.727 28.9576 48.727C29.1989 48.727 29.1989 48.727 29.3597 48.727H91.0328L90.1483 46.8776C90.1483 46.7168 89.9875 46.556 89.9875 46.4756C89.1834 45.0282 88.3793 43.5809 87.5752 42.2139C85.6454 38.8368 83.6352 35.3792 81.625 31.9217C80.0972 29.3486 77.283 27.7405 74.3079 27.7405C71.3328 27.7405 74.0666 27.7405 73.9058 27.7405C66.7495 27.7405 59.5128 27.7405 52.276 27.7405C45.0393 27.7405 37.8025 27.7405 30.5658 27.7405C30.5658 27.7405 30.405 27.7405 30.3246 27.7405C27.1887 27.7405 24.294 29.429 22.7662 32.1629C22.123 33.2082 21.5601 34.2535 20.9168 35.2988L20.354 36.3441C18.3438 39.8821 13.1976 48.8074 13.1976 48.8074H18.6654C19.8715 48.8074 20.9972 48.8074 22.123 48.8074H22.2034C22.6054 48.8074 22.927 49.129 22.927 49.4507C22.927 49.6115 22.927 49.6919 22.8466 49.7723C22.6858 49.9331 22.3642 50.0135 22.0425 50.0135C22.0425 50.0135 18.6654 50.0135 17.7809 50.0135C16.8964 50.0135 15.3687 50.0135 14.1625 50.0135C14.0821 50.0135 14.0017 50.0135 13.8409 50.0135C12.876 50.0135 11.9111 50.5764 11.5091 51.5413C10.5442 53.4711 9.41846 55.4009 8.45356 57.3307L7.56907 58.9388C6.52376 60.7882 5.71968 62.7984 5.15682 64.889C4.9156 65.7735 4.67438 66.7384 4.59397 67.6229H4.35274ZM38.8479 19.2976C37.3201 19.2976 36.114 19.2976 35.0687 19.2976C34.1038 19.2976 33.3801 19.7801 32.8172 20.5037V20.6645C32.3348 21.6294 31.9328 22.7552 31.5307 23.7201C31.3699 24.1221 31.2091 24.5241 31.0483 24.8458L30.405 26.3735H44.0744V19.1368H38.9283L38.8479 19.2976ZM45.3609 26.4539H58.2262V19.378H45.3609V26.4539ZM59.5128 26.4539H73.2626L72.7801 24.9262C72.2977 23.5592 71.7348 22.1923 71.1719 20.8254C71.1719 20.745 71.1719 20.5841 71.1719 20.5841C70.6091 19.8605 69.8854 19.378 69.0009 19.2172C68.5185 19.2172 68.036 19.1368 67.5536 19.1368C67.0711 19.1368 66.9103 19.1368 66.5887 19.1368H59.6736V26.2931L59.5128 26.4539Z" fill="#010B40"/>
<path d="M85.9672 85.9561H51.7937H17.6202H17.2986C17.0574 85.9561 16.7357 85.9561 16.4945 85.9561C16.1729 85.9561 15.9316 85.7149 15.9316 85.3933C15.9316 85.0716 16.1729 84.8304 16.4141 84.75C16.5749 84.75 16.8161 84.75 16.9769 84.75C17.1378 84.75 17.2182 84.75 17.2986 84.75H17.379H86.2888C86.4496 84.75 86.53 84.75 86.6104 84.75C86.8517 84.75 87.0125 84.75 87.2537 84.75C87.4949 84.75 87.7362 85.0716 87.7362 85.3129V85.4737C87.7362 85.7149 87.4949 85.9561 87.2537 85.9561C86.9321 85.9561 86.6104 85.9561 86.2888 85.9561C85.9672 85.9561 86.0476 85.9561 85.9672 85.9561Z" fill="#010B40"/>
<path d="M73.3431 73.2519C73.2627 73.2519 73.1823 73.2519 73.1019 73.2519C72.8606 73.0911 72.6998 72.7695 72.8606 72.5282C74.4688 69.714 76.2378 66.8997 77.9263 64.1658L78.0872 63.8442C78.4892 63.1205 79.2129 63.0401 80.419 62.9597C80.7406 62.9597 81.0623 62.9597 81.3035 62.9597C82.188 62.8793 83.1529 62.7989 84.0374 62.7184C85.1631 62.638 86.2888 62.5576 87.4145 62.3968C87.8166 62.3968 88.2186 62.3164 88.5402 62.3164C90.3896 62.3164 91.5153 62.9597 91.6761 66.4976C91.6761 69.714 90.2288 71.1613 86.6908 71.6438C84.0374 71.9654 81.3035 72.3674 78.65 72.7695C77.2831 72.9303 75.9966 73.1715 74.6296 73.3323C74.2276 73.3323 73.8255 73.4127 73.4235 73.4127H73.2627L73.3431 73.2519ZM88.3794 63.6029C85.6455 63.7638 82.9921 64.005 80.3386 64.2462C79.6953 64.3266 79.0521 64.6482 78.65 65.2111C77.8459 66.4172 77.0419 67.6233 76.2378 68.8295L74.2276 71.9654L79.6953 71.1613C82.59 70.7593 85.2435 70.3572 87.9774 69.9552C88.8619 69.714 89.5855 69.0707 89.9072 68.1862V68.0254C90.1484 67.0605 90.1484 66.176 90.068 65.2111C90.068 64.407 89.0227 63.6029 88.2186 63.6029H88.3794Z" fill="#010B40"/>
<path d="M30.8067 73.2519C28.8769 73.0107 26.8667 72.7695 25.0174 72.5282L23.7308 72.3674C22.9267 72.287 22.2031 72.1262 21.399 71.9654C19.9516 71.7242 18.4239 71.4829 16.8961 71.3221C15.5292 71.2417 14.4839 70.6789 13.7602 69.7944C12.8757 68.6687 12.5541 66.9801 12.7953 65.2111C13.1169 63.3617 13.6798 62.5576 14.9663 62.3164C15.1271 62.3164 15.288 62.3164 15.5292 62.3164C15.69 62.3164 15.7704 62.3164 15.9312 62.3164L18.1023 62.5576C20.4341 62.7989 22.8463 63.0401 25.1782 63.3617C25.5802 63.3617 25.9018 63.6029 26.2235 63.9246C28.3141 67.1409 30.0027 70.0356 31.6108 72.7695C31.6912 72.9303 31.6912 73.0911 31.6108 73.1715C31.5304 73.3323 31.2892 73.4931 30.9676 73.4931C30.9676 73.4931 30.9676 73.4931 30.8872 73.4931L30.8067 73.2519ZM16.0116 63.5225C13.921 63.5225 13.921 65.1307 13.8406 66.176C13.8406 69.2315 15.6096 69.8748 16.3333 69.9552C19.1476 70.3572 22.0423 70.7593 25.0174 71.1613L29.9223 71.8046L28.6357 69.714C28.3945 69.3119 28.0729 68.8295 27.8316 68.4274C27.2688 67.4625 26.7059 66.6584 26.2235 65.6935C25.5802 64.5678 24.4545 63.9246 23.168 63.9246C22.1227 63.9246 21.0774 63.7638 20.032 63.6833C18.9063 63.6029 17.7806 63.5225 16.6549 63.4421C16.4137 63.4421 16.1725 63.4421 16.0116 63.4421V63.5225Z" fill="#010B40"/>
<path d="M35.9528 65.1308C35.6312 65.1308 35.3096 64.8895 35.3096 64.5679V64.4071C35.3096 64.0855 35.5508 63.8442 35.8724 63.8442C35.8724 63.8442 35.8724 63.8442 35.9528 63.8442H36.0332H36.1137C37.7218 63.8442 39.2496 64.0051 40.8577 64.0855C43.9937 64.2463 47.21 64.4071 50.4263 64.4071H50.5871C54.2859 64.4071 58.0651 64.2463 61.6834 64.0855C63.5328 64.0051 65.4626 63.9246 67.312 63.8442C67.3924 63.8442 67.4728 63.8442 67.4728 63.8442C67.7945 63.8442 68.1161 63.8442 68.3573 64.0051C68.4377 64.0051 68.5181 64.2463 68.4377 64.4071C68.3573 64.8091 68.1161 65.0504 67.7945 65.0504H67.6337C66.7492 65.0504 65.9451 65.1308 65.0606 65.2112C63.5328 65.2916 61.9247 65.372 60.3165 65.4524C59.2712 65.4524 58.1455 65.4524 57.1002 65.4524C56.0549 65.4524 55.4116 65.4524 54.6075 65.4524C53.8035 65.4524 52.919 65.4524 52.1149 65.4524H50.9892V65.774C46.0039 65.5328 36.1137 65.0504 36.1137 65.0504L35.9528 65.1308Z" fill="#010B40"/>
<path d="M53.0799 75.3427C53.0799 75.2623 39.9734 75.2623 39.9734 75.2623C39.8126 75.2623 39.6517 75.2623 39.4909 75.2623C39.1693 75.2623 38.8477 75.0211 38.8477 74.6994C38.8477 74.2974 39.1693 74.0562 39.4909 74.0562H40.3754C41.6619 74.0562 42.9485 74.0562 44.3154 74.0562C45.6019 74.0562 46.9689 74.0562 48.2554 74.0562H48.4966C51.8738 74.0562 55.3313 74.0562 58.7085 74.0562H63.4526C63.6134 74.0562 63.7742 74.0562 63.8546 74.0562C64.0958 74.0562 64.337 74.0562 64.4979 74.0562C64.8195 74.0562 65.1411 74.3778 65.0607 74.6994C65.0607 75.0211 64.8195 75.2623 64.4979 75.2623C62.166 75.2623 59.8342 75.3427 57.5024 75.4231C56.7787 75.4231 56.1354 75.4231 55.4117 75.4231H53.0799V75.3427Z" fill="#010B40"/>
<path fill-rule="evenodd" clip-rule="evenodd" d="M51.7933 125.437C38.6064 118.924 28.9574 111.767 21.4794 102.842C20.5949 101.797 19.7909 100.832 19.0672 99.7866C18.5043 99.0629 18.0219 98.4196 17.6198 97.7764C16.8158 96.6506 16.0117 95.4445 15.288 94.2384C15.1272 94.0776 15.0468 93.8363 14.9664 93.6755C13.8407 91.9065 12.8758 90.0572 11.9109 88.2078C10.7851 86.0367 9.82025 83.7853 8.85535 81.4535C7.89045 79.0412 7.00596 76.629 6.28228 74.2168C6.12147 73.7343 5.96065 73.1714 5.79984 72.689C4.99576 70.1159 4.35249 67.3821 3.70922 64.6482C3.54841 64.0049 3.38759 63.2812 3.22677 62.5576C2.58351 59.5825 2.02065 56.3661 1.61861 53.0694C1.45779 51.8633 1.29698 50.5767 1.13616 49.2902C1.05575 48.4057 0.975346 47.5212 0.894938 46.6367C0.734121 45.3502 0.653713 44.1441 0.573304 42.7772C-0.150369 32.0025 -0.230777 20.9865 0.573304 10.2118C4.59371 9.89021 9.73984 8.36245 15.69 6.67388C25.5802 3.69878 37.8827 0.0804082 51.7129 0H52.2758H52.919C65.0607 0.160816 76.8003 3.53796 86.3688 6.35225C93.0427 8.28204 98.8321 9.97061 103.496 10.2922C104.219 21.1474 104.139 32.0829 103.415 42.8576C103.335 44.1441 103.174 45.4306 103.094 46.6367C103.013 47.5212 102.933 48.4057 102.853 49.2902C102.692 50.5767 102.531 51.8633 102.37 53.1498C101.888 56.4465 101.405 59.5825 100.762 62.5576C100.601 63.2008 100.521 63.8441 100.36 64.4874C100.199 65.1306 100.038 65.8543 99.8774 66.4976C99.2341 69.151 98.5105 71.7241 97.7064 74.2168C97.626 74.6188 97.4652 75.0208 97.3043 75.3425V75.5033C97.0631 75.9053 96.9827 76.3074 96.8219 76.7094C96.4198 77.7547 96.0982 78.8 95.6962 79.7649C95.1333 81.1319 94.6509 82.338 94.1684 83.4637C93.2035 85.6347 92.1582 87.8057 91.1129 89.8159C90.3088 91.3437 89.4243 92.791 88.5399 94.158C87.8162 95.3641 87.0121 96.5702 86.208 97.6959C85.6452 98.4196 85.1627 99.1433 84.7607 99.7061C84.2782 100.269 83.8762 100.832 83.3937 101.395C82.9917 101.877 82.5897 102.36 82.268 102.842C81.6248 103.646 80.9815 104.289 80.3382 105.013C77.926 107.586 75.3529 110.079 72.619 112.33C71.5737 113.134 70.6088 114.019 69.5635 114.742C67.6337 116.19 65.6235 117.557 63.3721 119.004C62.166 119.808 60.8794 120.532 59.5929 121.256C57.1807 122.622 54.6076 123.989 51.9541 125.356L51.7933 125.437ZM53.0798 122.944C53.7231 122.622 54.4468 122.301 55.0901 121.899C56.1354 121.336 57.2611 120.773 58.3064 120.21C59.3517 119.647 60.397 119.004 61.3619 118.441C62.4072 117.798 63.4525 117.155 64.4978 116.511C66.7492 115.064 68.8398 113.536 70.8501 112.009C71.8954 111.205 72.9407 110.32 73.986 109.436C76.8003 106.943 79.4537 104.209 81.866 101.395C82.4288 100.671 83.0721 99.9474 83.635 99.2237C84.1174 98.5804 84.5999 97.9372 85.0823 97.2939C85.4843 96.731 85.8864 96.1682 86.2884 95.6053C87.4141 93.9168 88.5399 92.1478 89.5852 90.218C90.2284 89.0923 90.7913 88.047 91.2737 87.0821C91.7562 86.0368 92.319 84.9914 92.8015 83.9461C94.088 81.1319 95.2137 78.1568 96.1786 75.1816C97.0631 72.6086 97.7868 69.8747 98.5105 66.98C98.6713 66.4976 98.7517 65.9347 98.8321 65.4523C98.9929 64.6482 99.2341 63.7637 99.395 62.8792C99.6362 61.5927 99.8774 60.3061 100.119 59.0196C100.36 57.4114 100.681 55.8033 100.842 54.1147C101.003 52.9086 101.164 51.622 101.325 50.4159C101.486 48.7274 101.646 47.3604 101.727 46.0739C101.807 44.9482 101.888 43.7421 101.968 42.5359C102.531 32.7261 102.531 22.7555 101.807 12.9457V11.9004H100.681C96.5003 11.9004 90.8717 10.2118 84.3586 8.28204C75.4333 5.70898 64.4174 2.49265 52.9994 2.33184H50.2656C37.6415 2.57306 26.4647 5.95021 17.3786 8.60368C11.5892 10.3727 6.52351 11.82 2.98555 11.9004H1.94024V12.9457C1.29698 22.7555 1.21657 32.6457 1.77943 42.4555C1.77943 43.6616 1.94024 44.8678 2.02065 46.0739C2.18147 47.5212 2.26188 48.9686 2.42269 50.4159C2.58351 51.7025 2.74433 52.9086 2.90514 54.1951C3.14637 55.6425 3.30718 57.0898 3.54841 58.5372V59.1804C4.03086 61.4318 4.51331 63.6029 4.91535 65.6935C5.4782 68.0253 6.04106 70.2767 6.68433 72.3674C7.56882 75.4229 8.61412 78.4784 9.82025 81.3731C10.7851 83.7853 11.8305 86.0367 12.9562 88.2078C14.3231 90.7808 15.7705 93.3539 17.459 95.7661C18.2631 96.9723 19.1476 98.2588 20.0321 99.3845C27.51 109.114 36.9982 116.431 50.6676 123.185H52.9994L53.0798 122.944Z" fill="#010B40"/>
</svg>
