<svg width="104" height="126" viewBox="0 0 104 126" fill="none" xmlns="http://www.w3.org/2000/svg">
<path fill-rule="evenodd" clip-rule="evenodd" d="M51.7085 125.507C51.1457 125.265 50.6633 124.944 50.1005 124.703C49.6181 124.461 49.2161 124.22 48.7337 123.979C48.0905 123.657 47.5277 123.336 46.9648 123.014L46.7236 122.853C46.4824 122.692 46.2412 122.532 45.9196 122.451C43.2664 121.004 40.9347 119.557 38.6835 118.11C37.7187 117.466 36.6735 116.743 35.6282 116.019C35.2262 115.698 34.7438 115.376 34.3418 115.054C33.2966 114.25 32.3318 113.527 31.367 112.723C30.161 111.677 28.8745 110.632 27.7489 109.507C25.5781 107.416 23.4072 105.245 21.4776 102.914C20.5932 101.869 19.7892 100.904 19.0656 99.8585C18.5832 99.2153 18.1008 98.5721 17.6183 97.8485C17.0555 97.0444 16.4927 96.2404 15.9299 95.356L15.2867 94.3108C15.2063 94.15 15.1259 93.9892 15.0455 93.9088V93.748C14.9651 93.748 14.3219 92.7028 14.3219 92.7028C13.4375 91.2555 12.6335 89.8083 11.8294 88.2003C10.7038 86.0295 9.73901 83.7782 8.77419 81.4466C7.80938 79.1149 6.92496 76.6225 6.20135 74.2105C6.04055 73.728 5.87975 73.1652 5.71894 72.6828C4.91493 70.11 4.27172 67.4567 3.62851 64.6427L3.2265 62.5523C2.58329 59.5774 2.02048 56.3614 1.61847 53.0649C1.45767 51.8589 1.29687 50.5725 1.13607 49.286C1.05566 48.4016 0.975263 47.5172 0.894862 46.6328C0.734059 45.3464 0.653657 44.1403 0.573256 42.7735C-0.150356 31.9997 -0.230758 20.9848 0.573256 10.211C4.59332 9.88937 9.73901 8.36174 15.6887 6.67331C25.5781 3.77886 37.7991 0.0804014 51.5477 0H52.1909H52.9949C65.1356 0.160803 76.8741 3.53766 86.3615 6.35171C93.0348 8.28134 98.8237 9.96977 103.487 10.2914C104.211 21.1456 104.13 32.0801 103.487 42.8539C103.407 44.1403 103.246 45.4268 103.165 46.7132C103.085 47.5976 103.005 48.482 102.924 49.3664C102.763 50.6529 102.603 51.9393 102.442 53.2257C102.04 56.3614 101.477 59.497 100.834 62.6327V62.8739C100.673 63.4367 100.512 64.0799 100.432 64.6427C100.351 65.1251 100.191 65.6075 100.11 66.0095L99.9493 66.5723C99.3061 69.2256 98.5825 71.7984 97.7785 74.2909C97.6981 74.6125 97.6177 74.9341 97.4569 75.1753L97.2961 75.5773C97.2157 75.8989 97.0549 76.2205 96.9745 76.5421V76.7833C96.5725 77.7481 96.1705 78.7129 95.7685 79.8385C95.2057 81.2858 94.7232 82.4918 94.2408 83.537C93.276 85.7078 92.3112 87.7983 91.1856 89.8887C90.5424 91.0947 89.9796 92.0596 89.4168 93.0244C89.1756 93.4264 88.9344 93.8284 88.6932 94.2304C88.4519 94.6324 88.1303 95.1148 87.8891 95.5168C87.4067 96.2404 86.9243 96.964 86.3615 97.768C85.7987 98.5721 85.3163 99.2153 84.9143 99.7781C84.4319 100.341 84.0299 100.904 83.5475 101.467L83.3867 101.708C83.065 102.11 82.7434 102.512 82.4218 102.914C81.7786 103.637 81.2158 104.361 80.653 104.924C80.5726 105.004 80.5726 105.085 80.4922 105.085C79.6078 106.049 78.7234 106.934 77.839 107.818C76.2309 109.426 74.5425 110.954 72.8541 112.321C71.8893 113.125 70.844 114.009 69.7988 114.733C69.3968 115.054 68.9948 115.296 68.6732 115.617C68.432 115.778 68.2712 115.858 68.1104 116.019C67.4672 116.502 66.7436 116.984 66.1004 117.466C65.7788 117.708 65.4572 117.949 65.0551 118.11L63.6079 118.994C62.4019 119.798 61.1155 120.522 59.8291 121.245C59.2663 121.567 58.7034 121.888 58.1406 122.21C57.6582 122.451 57.2562 122.692 56.7738 122.934C56.7738 122.934 55.6482 123.577 55.3266 123.738C54.7638 124.059 54.201 124.301 53.6382 124.622C53.6382 124.622 52.4321 125.185 52.1909 125.346H52.0301L51.7085 125.507ZM52.9949 123.094C53.2361 123.014 54.3618 122.451 54.3618 122.451C54.603 122.371 54.7638 122.21 55.005 122.13C55.005 122.13 55.0854 122.13 55.1658 122.13C55.809 121.808 56.3718 121.486 57.015 121.165C57.417 121.004 57.7386 120.763 58.1406 120.602C58.1406 120.602 58.1406 120.602 58.3014 120.602C59.4271 119.959 60.3919 119.396 61.3567 118.833C62.3215 118.27 63.3667 117.627 64.4923 116.904C64.8139 116.662 65.1356 116.502 65.4572 116.26L66.2612 115.698C67.0652 115.135 67.7888 114.572 68.5928 114.009C69.0752 113.688 69.4772 113.366 69.9596 113.044C70.2812 112.803 70.5224 112.562 70.844 112.401C71.8893 111.597 72.9345 110.713 73.9797 109.828C74.3817 109.507 74.7837 109.105 75.1857 108.783C76.1505 107.899 77.035 107.095 77.9194 106.13C79.2862 104.763 80.653 103.235 81.9394 101.788C82.5022 101.145 83.0651 100.421 83.7083 99.6173C84.1907 98.9741 84.6731 98.3309 85.1555 97.6877C85.5575 97.1248 85.9595 96.562 86.3615 95.9992V95.8384C86.5223 95.6776 86.6831 95.5168 86.7635 95.356C87.3263 94.552 87.8891 93.6676 88.4519 92.7028C88.854 91.9792 89.256 91.2555 89.658 90.5319C90.3012 89.4063 90.7836 88.3611 91.3464 87.3963C91.9092 86.2707 92.3916 85.2254 92.874 84.2606C94.1604 81.4466 95.2861 78.4717 96.2509 75.4969C97.0549 72.924 97.8589 70.1904 98.5825 67.2959C98.7433 66.8135 98.8237 66.2507 98.9041 65.7683C99.0649 64.9643 99.3061 64.0799 99.4669 63.1955C99.7885 61.7482 100.03 60.4618 100.191 59.3362C100.432 57.7282 100.753 56.1201 100.914 54.4317C101.075 53.2257 101.236 51.9393 101.397 50.7333C101.557 49.0448 101.718 47.678 101.799 46.3916C101.879 45.266 101.959 44.0599 102.04 42.8539C102.603 33.045 102.603 23.0752 101.879 13.3466V12.3014H100.753C96.5725 12.3014 90.9444 10.613 84.4319 8.68335C75.5073 6.1105 64.4923 2.89445 53.0753 2.73365H50.2613C37.6383 2.97485 26.4625 6.35171 17.3771 9.00495C11.5882 10.7738 6.52296 12.221 2.9853 12.3014H1.94008V13.3466C1.29687 23.1556 1.21647 33.045 1.77928 42.8539C1.77928 44.0599 1.94008 45.266 2.02048 46.472C2.18128 47.9192 2.26168 49.3664 2.42249 50.8137C2.58329 52.1001 2.74409 53.3061 2.9049 54.5925C3.1461 56.2005 3.3873 57.7282 3.54811 58.9342V59.2558C3.54811 59.3362 3.62851 59.497 3.62851 59.5774C4.03051 61.8286 4.43252 63.9995 4.91493 66.0899C5.47774 68.4216 6.04055 70.6728 6.68376 72.7632C7.56817 75.8185 8.61339 78.8737 9.81941 81.7682C10.7842 84.1802 11.8294 86.4315 12.9551 88.6023C13.6787 89.9691 14.4023 91.2555 15.1259 92.542C15.6887 93.4264 16.2515 94.3912 16.8143 95.1952C17.0555 95.5168 17.2163 95.8384 17.4575 96.0796C18.2616 97.2856 19.146 98.5721 20.0304 99.6977C23.4072 104.12 27.3469 108.14 31.6886 111.677C32.573 112.401 33.5378 113.205 34.7438 114.009C35.7891 114.733 36.8343 115.537 37.8795 116.18L38.5227 116.582C40.6935 118.029 43.1056 119.476 45.5176 120.763L46.3216 121.165C47.0452 121.567 47.7689 121.969 48.4925 122.29C48.8141 122.451 49.1357 122.612 49.5377 122.773C49.9397 122.934 50.2613 123.175 50.6633 123.336H52.9949V123.094Z" fill="#010B40"/>
<path d="M46.6436 122.854L46.8044 122.21C46.9652 121.406 47.126 120.522 47.2868 119.718C47.7693 117.306 48.1713 115.537 48.6537 113.849C49.5381 110.793 50.0205 106.934 45.7592 104.04C45.518 103.879 45.3572 103.718 45.3572 103.638C45.3572 103.477 45.4376 103.236 45.8396 102.914C46.9652 101.869 48.0105 100.824 49.2165 99.7784L51.4677 97.6076L50.5833 96.8036C50.0205 96.2407 49.4577 95.7583 48.9753 95.2759C47.9301 94.3111 46.9652 93.4267 46.0004 92.5423C45.4376 92.0599 44.9552 91.4971 44.3924 90.9343C42.9452 89.4066 41.4175 87.879 39.4075 87.3162C38.8447 87.1554 38.2015 87.075 37.4779 87.075C35.8698 87.075 34.2618 87.477 32.6538 87.879C32.091 88.0398 31.4478 88.2006 30.885 88.281C26.9453 89.1654 21.88 90.5323 17.2971 93.3463C16.6539 93.7483 16.0107 94.1503 15.4479 94.6327C15.3675 94.4719 15.2871 94.3111 15.2067 94.2307L15.0459 93.9091C15.6891 93.5071 16.2519 93.0247 16.8951 92.6227C21.076 90.2106 25.5785 88.5222 30.3222 87.6378C32.3322 87.1554 34.4226 86.8338 36.5935 86.5122C37.6387 86.3514 38.6839 86.1906 39.8095 85.9494L40.7743 85.7886V83.2157C40.7743 81.6077 40.7743 79.9997 40.7743 78.3917V78.2308V78.1504C40.6135 77.5072 40.2115 76.864 39.7291 76.3816C31.7694 67.5375 28.3121 57.9697 28.9553 47.3567C29.1161 44.7839 28.7945 41.8894 25.3373 39.7186C23.488 38.4322 21.7192 36.8241 20.1916 34.9749C19.3072 34.0101 19.2268 33.6081 20.1916 32.4825C23.6488 28.7036 26.3021 24.1207 27.8297 19.2966C28.1513 18.573 28.7945 18.0102 29.5181 17.769C36.9151 16.4826 44.1512 14.3922 51.0657 11.4977C51.3873 11.4173 51.7893 11.3369 52.1109 11.3369C52.4325 11.3369 53.0757 11.4173 53.5581 11.6585C60.2315 14.4726 67.2264 16.4826 74.3821 17.5278C75.3469 17.5278 76.1509 18.2514 76.3921 19.2162C77.759 24.0403 80.3318 28.4624 83.7891 32.0805C85.1559 33.6081 85.1559 33.9297 83.7891 35.3769C81.8594 37.3066 79.769 39.1558 77.5982 40.8442C75.9901 41.8894 75.1861 43.7387 75.3469 45.5879C75.8293 53.0652 74.7841 59.4169 72.1309 64.9646C70.4424 68.5827 68.1912 72.6832 64.7339 76.1404C63.6887 77.1856 63.6083 78.8741 63.4475 80.2409C63.4475 80.4821 63.4475 80.7233 63.4475 80.9645C63.2867 82.5725 63.0455 84.3413 64.0103 85.467C64.8143 86.5122 66.2616 86.673 67.7088 86.7534C68.1912 86.7534 68.5932 86.8338 68.9952 86.9142C75.5881 88.1202 81.0554 89.5674 85.9599 92.3815C86.2815 92.6227 86.6835 92.7835 87.0051 93.0247C87.6483 93.4267 88.2915 93.8287 88.8543 94.3111C88.8543 94.3915 88.5327 94.8739 88.4523 94.9543C87.8091 94.5523 87.1659 94.1503 86.5227 93.7483C85.5579 93.1855 84.5127 92.6227 83.3871 92.0599C77.3569 89.2458 70.9248 88.0398 65.4575 87.3162C65.2967 87.3162 65.1359 87.3162 64.8947 87.3162C64.3319 87.3162 63.7691 87.477 63.3671 87.7182H63.2867L63.2063 87.879C60.6335 90.2106 58.141 92.6227 55.4074 95.1151L52.4325 97.8488L53.3973 98.6528C53.719 98.894 53.9602 99.1352 54.2014 99.3764C54.7642 99.8588 55.2466 100.261 55.729 100.743C56.131 101.145 56.533 101.547 56.8546 101.869C57.6586 102.673 58.543 103.557 58.6234 103.798C58.6234 104.04 57.739 104.844 56.935 105.567C56.6134 105.889 56.2114 106.291 55.729 106.693C54.6034 107.658 54.2014 109.185 54.6034 110.552L55.0054 112.241C55.5682 114.733 56.131 117.386 56.6938 119.879C56.935 120.844 57.0958 121.969 57.337 123.095C57.0958 123.175 56.533 123.497 56.533 123.497L53.2365 107.738H52.8345L57.6586 103.959L56.7742 103.075C55.8094 102.03 54.925 101.145 54.0406 100.261L52.2717 98.4116L46.6436 103.718L51.0657 107.738C51.0657 107.738 49.1361 116.824 48.2517 121.004C48.0909 121.808 47.9301 122.693 47.7693 123.497C47.6084 123.416 46.9652 123.095 46.9652 123.095L46.6436 122.854ZM41.4175 84.9042C41.4175 85.7886 41.5783 86.673 42.0608 87.3966C42.0608 87.477 42.1412 87.6378 42.1412 87.6378C44.3924 89.8086 46.5632 91.8991 48.9753 94.1503L51.7893 96.8036L54.6034 94.1503C56.935 91.9795 59.1862 89.889 61.3571 87.7182C61.8395 87.3162 62.0807 86.673 62.1611 86.1102C62.1611 84.7434 62.1611 83.4569 62.1611 82.0097V78.3112L60.3923 79.4369C57.4174 81.2861 54.6034 82.2509 51.7089 82.2509C48.8145 82.2509 46.0004 81.3665 42.9452 79.4369L41.1763 78.3917V80.4821C41.1763 81.0449 41.1763 81.5273 41.1763 82.0097C41.1763 83.0549 41.1763 84.0197 41.1763 84.9846L41.4175 84.9042ZM35.709 43.6583C35.1462 43.6583 34.5834 43.7387 33.8598 43.9799H33.699C29.6789 45.1859 29.3573 45.5879 29.2769 49.8492C29.5985 59.8189 33.6186 69.2259 40.6135 76.2208C43.9904 79.6781 47.8497 81.4469 51.7089 81.4469C55.5682 81.4469 58.543 80.0801 61.5983 77.4268C69.7188 70.3515 73.9801 61.1054 74.3821 49.8492C74.5429 45.6683 74.1409 45.1055 70.1208 43.9799H69.8796C69.156 43.7387 68.5128 43.5779 68.0304 43.5779C66.8244 43.5779 65.8596 44.0603 64.8947 45.0251C63.9299 45.9095 62.7239 46.5527 61.4375 46.9547C58.3018 47.9999 55.0858 48.4823 51.8697 48.4823C48.6537 48.4823 45.4376 47.9999 42.302 46.9547C40.9351 46.6331 39.7291 45.9095 38.7643 45.0251C37.7995 44.0603 36.8347 43.5779 35.709 43.5779V43.6583ZM51.9501 41.4874C48.0105 41.4874 44.0708 41.8894 40.2919 42.7738L37.7995 43.3367L39.8095 44.8643C42.302 46.7135 46.8044 47.7587 51.8697 47.7587C56.935 47.7587 61.4375 46.6331 63.9299 44.8643L65.94 43.3367L63.4475 42.7738C59.6687 41.9698 55.729 41.5678 51.8697 41.5678L51.9501 41.4874ZM51.5481 33.1257C44.714 33.1257 37.9603 34.1709 31.4478 36.1005C30.483 36.5025 29.7593 37.2262 29.5181 38.191C29.5181 38.2714 29.5181 38.4322 29.5181 38.4322C29.4377 39.9598 29.3573 41.407 29.5181 42.9347V44.3819L30.9654 43.9799C37.7995 41.9698 44.9552 40.9246 52.0305 40.9246C59.1058 40.9246 66.1812 41.9698 73.0153 43.9799L74.4625 44.3819V42.8542C74.4625 42.3718 74.4625 41.9698 74.4625 41.5678C74.4625 40.7638 74.4625 40.0402 74.4625 39.397C74.6233 38.1106 74.3017 36.5025 71.8897 36.0201C70.4424 35.7789 68.9952 35.4573 67.6284 35.1357C64.9751 34.5729 62.2415 34.0101 59.5078 33.6081C56.8546 33.2865 54.2014 33.1257 51.6285 33.1257H51.5481ZM51.7893 12.0605C51.3069 12.0605 50.8245 12.1409 50.4225 12.3017C43.9904 15.1158 37.3171 17.0454 30.483 18.0906C28.7945 18.4122 28.3121 19.5379 27.9101 20.3419C26.7041 22.9951 25.2569 26.0504 23.6488 28.9448C22.684 30.392 21.6388 31.8393 20.4328 33.1257L19.7092 34.0101L28.2317 41.4874L28.4729 39.2362C28.6337 37.6282 28.7141 36.5829 29.0357 36.2613C29.2769 35.9397 30.0809 35.6985 31.4478 35.2965C38.1211 33.3669 45.0356 32.3217 51.9501 32.3217C58.8646 32.3217 65.94 33.3669 72.6937 35.2965C73.8997 35.6181 74.7037 35.8593 74.9449 36.1005C75.1057 36.3417 75.1861 37.2261 75.2665 38.4322C75.2665 38.995 75.1057 39.4774 75.2665 39.6382C75.2665 39.6382 75.3469 40.0402 75.4273 40.1206L75.6685 41.2462L84.1107 33.6885L83.3066 32.8041C79.769 29.1056 77.0353 24.5227 75.4273 19.6183V19.4575L75.3469 19.3771C74.8645 18.573 74.0605 18.0906 73.1761 17.9298C66.342 16.8042 59.6687 14.955 53.3169 12.2213C52.8345 12.0605 52.2717 11.8997 51.7893 11.8997V12.0605Z" fill="#010B40"/>
<path d="M37.1557 117.064V112.481H31.1256C30.7236 112.16 30.402 111.838 30 111.517C30.804 111.517 31.6884 111.517 32.4924 111.517H37.3969H37.5577C37.7185 111.517 37.8793 111.597 37.9597 111.758C38.0401 111.919 38.1205 111.999 38.1205 112.16V112.321C38.1205 113.285 38.1205 114.25 38.1205 115.215C38.1205 115.939 38.1205 116.501 38.1205 117.145C38.1205 117.386 38.1205 117.547 38.1205 117.708C37.7989 117.547 37.5577 117.305 37.2361 117.064H37.1557Z" fill="#010B40"/>
<path d="M66.8242 116.823C66.6634 116.261 66.583 115.698 66.6634 115.055V114.653C66.8242 113.929 66.985 113.205 67.2262 112.482C67.4674 111.758 67.7086 110.472 67.0654 109.668C66.583 109.105 66.6634 108.944 67.387 107.818C67.9498 106.934 68.191 106.854 68.5126 106.854C68.8342 106.854 69.0754 106.854 69.397 107.014L69.799 107.175L70.201 107.014C71.4071 106.612 72.5327 106.05 73.6583 105.406H73.7387C74.0603 105.085 74.3015 105.004 74.4623 105.004C74.6231 105.004 74.9447 105.165 75.3467 105.406C75.8291 105.728 76.3115 105.969 76.7939 106.13C77.5176 106.452 78.2412 106.612 78.9648 106.693C78.7236 107.014 78.402 107.256 78.1608 107.577C77.2764 107.256 76.3115 106.934 75.3467 106.693C75.1055 106.693 74.7839 106.612 74.5427 106.612C74.2211 106.612 73.9799 106.612 73.6583 106.773C72.5327 107.095 71.4875 107.497 70.5226 107.818L68.8342 108.381V109.024C68.593 109.507 68.5126 109.989 68.4322 110.552C68.4322 111.035 68.2714 111.437 68.191 111.919C68.1106 112.562 67.9498 113.125 67.789 113.688C67.5478 114.572 67.4674 115.537 67.6282 116.502C67.387 116.663 67.1458 116.904 66.8242 117.065V116.823Z" fill="#010B40"/>
<path d="M51.467 27.7385C51.3062 27.7385 51.2258 27.7385 51.065 27.7385C49.7786 27.6581 48.5725 27.0149 47.7685 26.0501C46.9645 25.0853 46.5625 23.7988 46.6429 22.5124C46.8037 20.02 48.9745 18.0903 51.467 18.0903C53.9594 18.0903 51.7082 18.0903 51.869 18.0903C54.4418 18.2511 56.4519 20.3416 56.2911 22.9144C56.2911 23.0752 56.2911 23.1556 56.2911 23.3164C56.1303 25.8089 53.9594 27.7385 51.467 27.7385ZM51.5474 18.8943C51.3866 18.8943 51.3062 18.8943 51.1454 18.8943C48.9745 19.1355 47.3665 21.0652 47.6077 23.236C47.8489 25.2461 49.5374 26.7737 51.5474 26.7737C53.5574 26.7737 51.7886 26.7737 51.9494 26.7737C53.9594 26.6129 55.5675 24.844 55.4871 22.7536C55.4871 22.6732 55.4871 22.5124 55.4871 22.3516C55.2459 20.3416 53.5574 18.8139 51.5474 18.8139V18.8943Z" fill="#010B40"/>
</svg>
