<svg width="19" height="20" viewBox="0 0 19 20" fill="none" xmlns="http://www.w3.org/2000/svg">
<path d="M18.4961 5.64338C18.4527 4.62347 18.2933 3.9223 18.065 3.31472C17.8295 2.66979 17.4672 2.09239 16.9925 1.61239C16.5287 1.12493 15.9671 0.746142 15.3512 0.506217C14.7607 0.269953 14.0868 0.105022 13.1013 0.0600546C12.1085 0.0112785 11.7933 0 9.27523 0C6.75715 0 6.44196 0.0112785 5.45282 0.0562463C4.46735 0.101214 3.78986 0.266291 3.20294 0.502408C2.57964 0.746142 2.02174 1.12112 1.55795 1.61239C1.08694 2.09239 0.721089 2.6736 0.489123 3.31106C0.260837 3.9223 0.101476 4.61967 0.0580268 5.63957C0.0108977 6.66709 0 6.99329 0 9.59937C0 12.2054 0.0108977 12.5316 0.054347 13.5554C0.0977964 14.5753 0.257299 15.2764 0.485585 15.884C0.721089 16.5289 1.08694 17.1063 1.55795 17.5863C2.02174 18.0738 2.58332 18.4526 3.19926 18.6925C3.78986 18.9288 4.46368 19.0937 5.44928 19.1387C6.43828 19.1838 6.75361 19.1949 9.27169 19.1949C11.7898 19.1949 12.105 19.1838 13.0941 19.1387C14.0796 19.0937 14.7571 18.9288 15.344 18.6925C16.5904 18.1938 17.5759 17.1739 18.0578 15.884C18.2859 15.2728 18.4454 14.5753 18.4889 13.5554C18.5323 12.5316 18.5432 12.2054 18.5432 9.59937C18.5432 6.99329 18.5396 6.66709 18.4961 5.64338ZM16.8259 13.4804C16.786 14.4178 16.6339 14.924 16.5071 15.2615C16.1954 16.0977 15.5542 16.7614 14.7462 17.0839C14.4201 17.2152 13.9274 17.3726 13.0252 17.4138C12.0469 17.4589 11.7535 17.47 9.27891 17.47C6.80428 17.47 6.50721 17.4589 5.5325 17.4138C4.62672 17.3726 4.13759 17.2152 3.81151 17.0839C3.40943 16.9301 3.04343 16.6864 2.74637 16.3677C2.4384 16.0564 2.20289 15.6814 2.05429 15.2653C1.92748 14.9278 1.77534 14.4178 1.73557 13.4842C1.69198 12.4717 1.68122 12.1679 1.68122 9.60684C1.68122 7.04573 1.69198 6.73828 1.73557 5.72965C1.77534 4.79221 1.92748 4.286 2.05429 3.94852C2.20289 3.53224 2.4384 3.1536 2.75005 2.846C3.05065 2.52727 3.41297 2.28354 3.81519 2.12989C4.14127 1.99865 4.63408 1.84119 5.53618 1.79988C6.51443 1.75491 6.80796 1.74364 9.28245 1.74364C11.7608 1.74364 12.0541 1.75491 13.0289 1.79988C13.9346 1.84119 14.4238 1.99865 14.7498 2.12989C15.1519 2.28354 15.5179 2.52727 15.815 2.846C16.123 3.15726 16.3585 3.53224 16.5071 3.94852C16.6339 4.286 16.786 4.79588 16.8259 5.72965C16.8694 6.74208 16.8803 7.04573 16.8803 9.60684C16.8803 12.1679 16.8694 12.4679 16.8259 13.4804Z" fill="white"/>
<path d="M9.27419 4.66845C6.64388 4.66845 4.50977 6.877 4.50977 9.59937C4.50977 12.3218 6.64388 14.5303 9.27419 14.5303C11.9046 14.5303 14.0386 12.3218 14.0386 9.59937C14.0386 6.877 11.9046 4.66845 9.27419 4.66845ZM9.27419 12.7979C7.56778 12.7979 6.18363 11.3656 6.18363 9.59937C6.18363 7.83318 7.56778 6.40081 9.27419 6.40081C10.9807 6.40081 12.3648 7.83318 12.3648 9.59937C12.3648 11.3656 10.9807 12.7979 9.27419 12.7979Z" fill="white"/>
<path d="M15.3399 4.47348C15.3399 5.10918 14.8419 5.62462 14.2275 5.62462C13.6133 5.62462 13.1152 5.10918 13.1152 4.47348C13.1152 3.83763 13.6133 3.32233 14.2275 3.32233C14.8419 3.32233 15.3399 3.83763 15.3399 4.47348Z" fill="white"/>
</svg>
