<svg width="18" height="13" viewBox="0 0 18 13" fill="none" xmlns="http://www.w3.org/2000/svg">
<path d="M17.0294 1.97153C16.829 1.2006 16.2417 0.592887 15.4969 0.3853C14.1363 0 8.69361 0 8.69361 0C8.69361 0 3.25116 0 1.89053 0.370692C1.16006 0.578059 0.558434 1.20071 0.358069 1.97153C0 3.37961 0 6.29978 0 6.29978C0 6.29978 0 9.23467 0.358069 10.628C0.558646 11.3989 1.14573 12.0066 1.89063 12.2142C3.26549 12.5996 8.69383 12.5996 8.69383 12.5996C8.69383 12.5996 14.1363 12.5996 15.4969 12.2289C16.2418 12.0214 16.829 11.4137 17.0296 10.6429C17.3875 9.23467 17.3875 6.31461 17.3875 6.31461C17.3875 6.31461 17.4019 3.37961 17.0294 1.97153ZM6.96079 8.99754V3.60203L11.4866 6.29978L6.96079 8.99754Z" fill="white"/>
</svg>
